<?xml version="1.0" ?><svg height="24px" version="1.1" viewBox="0 0 24 24" width="24px" xmlns="http://www.w3.org/2000/svg" xmlns:sketch="http://www.bohemiancoding.com/sketch/ns" xmlns:xlink="http://www.w3.org/1999/xlink"><title/><desc/><defs/><g fill="none" fill-rule="evenodd" id="miu" stroke="none" stroke-width="1"><g id="Artboard-1" transform="translate(-431.000000, -191.000000)"><g id="slice" transform="translate(215.000000, 119.000000)"/><path d="M432,202.5 C432,196.148725 437.148725,191 443.5,191 C449.851275,191 455,196.148725 455,202.5 C455,208.851275 449.851275,214 443.5,214 C437.148725,214 432,208.851275 432,202.5 Z M454,202.5 C454,196.70101 449.29899,192 443.5,192 C437.70101,192 433,196.70101 433,202.5 C433,208.29899 437.70101,213 443.5,213 C449.29899,213 454,208.29899 454,202.5 Z M444.656854,196.843146 L446.071068,198.257359 L441.828427,202.5 L446.071068,206.742641 L444.656854,208.156854 L439,202.5 L444.656854,196.843146 Z" fill="#000000" id="circle-next-arrow-disclosure-outline-stroke" transform="translate(443.500000, 202.500000) scale(-1, 1) translate(-443.500000, -202.500000) "/></g></g></svg>