<?xml version="1.0" encoding="UTF-8" standalone="no"?>
<svg
   xmlns:dc="http://purl.org/dc/elements/1.1/"
   xmlns:cc="http://creativecommons.org/ns#"
   xmlns:rdf="http://www.w3.org/1999/02/22-rdf-syntax-ns#"
   xmlns:svg="http://www.w3.org/2000/svg"
   xmlns="http://www.w3.org/2000/svg"
   xmlns:sodipodi="http://sodipodi.sourceforge.net/DTD/sodipodi-0.dtd"
   xmlns:inkscape="http://www.inkscape.org/namespaces/inkscape"
   height="24px"
   version="1.1"
   viewBox="0 0 24 24"
   width="24px"
   id="svg1545"
   sodipodi:docname="cerrar5.svg"
   inkscape:version="0.92.2 (5c3e80d, 2017-08-06)">
  <metadata
     id="metadata1549">
    <rdf:RDF>
      <cc:Work
         rdf:about="">
        <dc:format>image/svg+xml</dc:format>
        <dc:type
           rdf:resource="http://purl.org/dc/dcmitype/StillImage" />
        <dc:title></dc:title>
      </cc:Work>
    </rdf:RDF>
  </metadata>
  <sodipodi:namedview
     pagecolor="#ffffff"
     bordercolor="#666666"
     borderopacity="1"
     objecttolerance="10"
     gridtolerance="10"
     guidetolerance="10"
     inkscape:pageopacity="0"
     inkscape:pageshadow="2"
     inkscape:window-width="1920"
     inkscape:window-height="1017"
     id="namedview1547"
     showgrid="false"
     inkscape:zoom="9.8333333"
     inkscape:cx="-10.728814"
     inkscape:cy="12"
     inkscape:window-x="-8"
     inkscape:window-y="-8"
     inkscape:window-maximized="1"
     inkscape:current-layer="svg1545" />
  <desc
     id="desc1537" />
  <defs
     id="defs1539" />
  <g
     id="g2131"
     style="fill:#ef269d;fill-opacity:1;stroke-width:19.07070732"
     transform="matrix(0.05243644,0,0,0.05243644,-1.4237287,-1.4761651)">
    <path
       d="M 256,33 C 132.3,33 32,133.3 32,257 32,380.7 132.3,481 256,481 379.7,481 480,380.7 480,257 480,133.3 379.7,33 256,33 Z m 108.3,299.5 c 1.5,1.5 2.3,3.5 2.3,5.6 0,2.1 -0.8,4.2 -2.3,5.6 l -21.6,21.7 c -1.6,1.6 -3.6,2.3 -5.6,2.3 -2,0 -4.1,-0.8 -5.6,-2.3 L 256,289.8 180.6,365.5 c -1.5,1.6 -3.6,2.3 -5.6,2.3 -2,0 -4.1,-0.8 -5.6,-2.3 l -21.6,-21.7 c -1.5,-1.5 -2.3,-3.5 -2.3,-5.6 0,-2.1 0.8,-4.2 2.3,-5.6 l 75.7,-76 -75.9,-75 c -3.1,-3.1 -3.1,-8.2 0,-11.3 l 21.6,-21.7 c 1.5,-1.5 3.5,-2.3 5.6,-2.3 2.1,0 4.1,0.8 5.6,2.3 l 75.7,74.7 75.7,-74.7 c 1.5,-1.5 3.5,-2.3 5.6,-2.3 2.1,0 4.1,0.8 5.6,2.3 l 21.6,21.7 c 3.1,3.1 3.1,8.2 0,11.3 l -75.9,75 z"
       id="path2129"
       style="fill:#ef269d;fill-opacity:1;stroke-width:19.07070732"
       inkscape:connector-curvature="0" />
  </g>
</svg>
