<?xml version="1.0" standalone="no"?>
<!DOCTYPE svg PUBLIC "-//W3C//DTD SVG 20010904//EN"
 "http://www.w3.org/TR/2001/REC-SVG-20010904/DTD/svg10.dtd">
<svg version="1.0" xmlns="http://www.w3.org/2000/svg"
 width="1200.000000pt" height="800.000000pt" viewBox="0 0 1200.000000 800.000000"
 preserveAspectRatio="xMidYMid meet">
<metadata>
Created by potrace 1.16, written by Peter Selinger 2001-2019
</metadata>
<g transform="translate(0.000000,800.000000) scale(0.100000,-0.100000)"
fill="#000000" stroke="none">
<path d="M11230 7992 c0 -4 16 -55 35 -111 19 -57 32 -108 29 -112 -3 -5 -14
-9 -25 -9 -23 0 -36 -27 -21 -42 6 -6 35 -3 88 12 44 12 81 24 82 25 2 2 1 13
-3 24 -5 16 -12 20 -30 15 -18 -4 -25 -1 -30 15 -3 12 -11 18 -17 15 -7 -4 -8
-2 -4 4 10 16 -15 93 -27 85 -6 -3 -7 -1 -3 5 9 15 -4 63 -15 56 -5 -3 -6 2
-3 10 5 12 -1 16 -25 16 -17 0 -31 -4 -31 -8z"/>
<path d="M8100 7785 c-14 -8 -37 -14 -52 -15 -20 0 -26 -4 -22 -15 5 -11 16
-13 45 -9 l39 7 0 -207 c0 -117 -4 -215 -10 -226 -14 -25 19 -38 37 -14 11 15
18 16 51 6 59 -18 113 -14 162 11 59 30 82 65 87 129 9 126 -101 203 -232 163
-28 -8 -51 -15 -52 -15 -2 0 -3 45 -3 100 l0 100 -20 -20 c-11 -11 -28 -20
-37 -19 -12 1 -9 5 10 12 15 6 27 14 27 19 0 10 0 10 -30 -7z m251 -221 c10
-9 19 -14 19 -9 0 4 7 2 15 -5 8 -7 15 -9 15 -4 0 4 5 3 10 -2 7 -7 7 -18 0
-35 -10 -23 -10 -22 -6 6 3 17 3 24 0 17 -5 -10 -9 -9 -19 5 -11 14 -10 8 1
-26 17 -50 12 -89 -18 -126 -41 -53 -107 -68 -172 -41 l-34 14 -4 94 c-5 108
2 123 66 136 49 10 100 0 127 -24z"/>
<path d="M8761 7733 c0 -11 3 -13 6 -5 2 6 17 12 31 11 15 0 22 -3 15 -6 -19
-7 102 -243 125 -243 25 0 137 235 113 237 -11 1 -31 -31 -61 -98 -25 -54 -49
-97 -53 -96 -4 1 -30 48 -56 103 -47 98 -48 101 -25 98 13 -1 24 2 24 7 0 5
-27 9 -60 9 -51 0 -60 -3 -59 -17z"/>
<path d="M10531 6793 c-21 -102 -25 -155 -10 -164 28 -18 39 -9 39 29 0 20 7
50 15 66 18 35 19 39 3 30 -9 -5 -9 -2 1 9 16 20 25 23 15 5 -4 -7 5 -2 19 11
15 14 29 22 31 20 3 -2 -2 -32 -10 -67 -12 -52 -12 -68 -2 -90 27 -56 90 -35
128 43 22 45 19 79 -4 41 -6 -11 -26 -36 -43 -55 l-32 -36 -1 30 c0 17 7 55
15 85 18 65 17 63 6 56 -5 -3 -8 2 -7 12 2 23 -39 28 -70 7 -22 -14 -27 -14
-46 0 -32 22 -35 20 -47 -32z"/>
<path d="M6433 6450 c-32 -13 -29 -22 3 -10 14 6 33 10 42 10 35 -1 -22 -25
-58 -25 -31 0 -37 -5 -58 -45 -29 -56 -24 -105 13 -137 52 -46 127 -20 170 58
17 33 24 54 18 60 -7 7 -15 -1 -23 -20 -14 -34 -73 -91 -94 -91 -8 0 -19 7
-26 15 -12 14 -15 14 -30 0 -12 -11 -20 -13 -25 -5 -4 6 -1 9 7 8 7 -2 12 3
10 10 -1 8 2 11 7 8 5 -4 11 -3 13 1 1 5 20 16 41 25 64 30 100 115 58 138
-23 12 -38 12 -68 0z"/>
<path d="M10850 6339 c-11 -8 -5 -9 23 -4 45 7 87 -14 87 -44 0 -15 -10 -19
-52 -23 -51 -5 -88 -31 -88 -62 0 -7 4 -6 9 2 7 11 10 10 15 -3 8 -23 8 -27
-4 -20 -5 3 -10 2 -10 -3 0 -23 81 -30 116 -9 17 10 21 22 22 71 0 32 4 61 7
65 4 3 5 -29 3 -71 -2 -43 0 -78 4 -78 5 0 8 34 8 75 0 62 -4 79 -20 95 -22
22 -94 28 -120 9z"/>
<path d="M8711 6205 c-7 -38 -24 -116 -37 -172 -14 -57 -22 -108 -18 -114 4
-7 3 -9 -4 -5 -5 3 -12 2 -14 -3 -2 -7 -18 -7 -43 -1 -55 13 -110 12 -157 -2
-100 -30 -121 -147 -33 -184 53 -22 194 -16 179 7 -3 5 2 6 11 3 10 -4 29 8
55 35 22 22 45 41 52 41 9 0 9 3 -2 11 -13 9 -13 10 0 6 8 -2 15 -10 15 -18 0
-8 8 -13 18 -13 9 1 15 -2 12 -6 -9 -14 25 -20 50 -8 27 12 28 34 2 32 -9 -1
-14 2 -12 7 3 4 -12 17 -33 28 -22 11 -42 27 -46 36 -4 10 -2 14 6 9 8 -5 9 2
4 22 -4 18 -3 24 2 16 6 -9 22 37 47 133 40 151 40 182 1 179 -9 -1 -13 3 -9
9 4 6 0 8 -10 4 -9 -3 -18 -1 -20 6 -2 7 -9 -19 -16 -58z m-130 -345 c10 0 23
-9 29 -20 8 -16 8 -20 -2 -18 -7 2 -13 -6 -13 -17 0 -11 -7 -20 -15 -20 -8 -1
-13 -7 -12 -15 2 -8 0 -12 -3 -8 -4 4 -20 1 -36 -7 -83 -43 -183 22 -121 78
23 21 88 37 126 31 16 -2 37 -4 47 -4z"/>
<path d="M7635 5892 c26 -151 49 -235 69 -251 24 -20 74 -31 84 -18 10 13 47
138 82 277 11 47 23 93 26 103 4 12 0 17 -14 17 -16 0 -22 -11 -30 -59 -17
-93 -74 -291 -84 -291 -5 0 -6 -6 -2 -12 5 -9 2 -9 -9 1 -9 7 -17 19 -17 25 0
6 5 4 10 -4 15 -23 13 -15 -31 156 -40 157 -53 184 -90 184 -15 0 -15 -10 6
-128z"/>
<path d="M6000 5550 c-6 -27 -8 -54 -4 -61 4 -7 3 -9 -3 -6 -13 8 -25 -35 -17
-60 4 -13 3 -15 -4 -4 -18 25 -46 -139 -28 -167 16 -26 36 -12 38 26 1 20 2
47 3 59 0 12 5 26 10 30 4 5 4 1 0 -7 -8 -13 -7 -13 9 -1 9 8 15 20 12 27 -6
15 9 27 37 31 14 2 16 -2 10 -25 -5 -15 -8 -53 -8 -86 0 -66 14 -83 59 -72 41
10 110 126 75 126 -6 0 -9 -7 -5 -15 3 -8 2 -14 -2 -12 -4 1 -22 -14 -39 -33
-17 -19 -33 -33 -36 -30 -2 3 -7 23 -10 45 -4 23 -3 34 2 26 6 -9 12 3 21 38
10 41 10 55 0 66 -14 17 -43 19 -70 5 -14 -7 -19 -5 -23 10 -3 11 -1 18 3 15
11 -7 32 59 28 87 -2 15 -9 22 -20 22 -10 -1 -15 2 -12 7 3 5 1 9 -4 9 -6 0
-15 -22 -22 -50z"/>
<path d="M2755 4865 c-51 -50 -22 -155 41 -155 40 0 62 17 73 56 17 61 -21
124 -74 124 -9 0 -27 -11 -40 -25z"/>
<path d="M4317 4870 c-34 -27 -44 -78 -23 -118 40 -78 136 -43 136 50 0 28 -7
46 -25 63 -29 30 -54 31 -88 5z"/>
<path d="M6635 4647 l0 -224 40 0 40 0 0 224 0 223 -40 0 -40 0 0 -223z"/>
<path d="M3701 4375 c-1 -6 -15 -19 -33 -30 -46 -27 -139 -25 -178 3 -16 12
-31 22 -33 22 -7 0 -25 -50 -32 -88 -8 -37 12 -135 26 -126 5 3 6 -1 4 -8 -8
-20 60 -82 80 -74 9 3 13 2 10 -4 -4 -6 9 -10 30 -10 95 0 160 77 160 190 0
39 -7 79 -17 100 -9 19 -17 30 -17 25z"/>
<path d="M6869 3807 c-9 -34 -26 -99 -39 -145 -18 -65 -21 -91 -14 -120 17
-70 84 -50 129 38 20 39 22 50 11 50 -8 0 -17 -9 -21 -19 -9 -29 -45 -71 -60
-71 -10 0 -13 13 -12 49 1 27 5 47 8 46 3 -2 20 41 38 96 31 96 32 101 15 120
-28 31 -38 23 -55 -44z"/>
<path d="M7620 3475 c-25 -14 -25 -14 -2 -15 21 0 22 -3 22 -104 0 -91 -2
-105 -17 -109 -10 -3 5 -5 32 -4 28 0 38 2 23 4 -24 4 -28 9 -28 37 l0 32 51
0 c44 -1 54 3 75 27 31 37 31 81 -1 112 -25 26 -76 33 -105 15 -10 -6 -17 -5
-20 5 -4 11 -9 11 -30 0z m124 -12 c4 -5 13 -8 18 -8 14 0 21 -50 13 -82 -8
-33 -62 -57 -98 -44 -24 10 -27 15 -27 60 0 40 4 53 22 65 24 17 60 21 72 9z"/>
<path d="M5490 3130 c0 -87 4 -140 10 -140 6 0 10 7 10 15 0 8 4 15 9 15 5 0
14 -7 21 -15 15 -18 88 -20 111 -2 45 35 53 114 14 152 -29 29 -88 34 -123 9
l-22 -15 0 60 c0 48 -3 61 -15 61 -13 0 -15 -22 -15 -140z m161 31 c11 -1 29
-52 29 -80 0 -66 -81 -102 -134 -60 -21 16 -26 29 -26 64 0 56 33 86 88 80 20
-2 40 -4 43 -4z"/>
<path d="M6642 2953 c-23 -110 -25 -142 -8 -168 21 -32 50 -32 83 1 14 14 26
24 27 22 23 -51 50 -59 89 -27 41 31 83 119 57 119 -5 0 -6 -7 -3 -17 4 -11 3
-14 -5 -9 -7 4 -12 3 -12 -3 0 -13 -50 -71 -61 -71 -14 0 -11 51 6 106 18 59
17 57 5 49 -6 -3 -7 1 -4 9 4 11 -2 19 -17 25 -23 8 -25 5 -38 -53 -7 -33 -14
-69 -14 -78 -1 -9 -4 -15 -8 -12 -4 2 -14 -7 -23 -21 -9 -14 -24 -25 -33 -25
-13 0 -14 7 -8 43 5 23 9 54 9 69 1 14 5 24 9 21 20 -12 0 41 -20 54 -20 14
-21 12 -31 -34z"/>
<path d="M5915 2080 c-4 -6 1 -7 12 -3 10 3 15 2 10 -2 -4 -5 -28 -8 -53 -6
-32 1 -44 -1 -39 -9 4 -6 13 -9 20 -6 7 2 21 -5 32 -17 l18 -22 -25 20 c-14
11 -7 0 15 -24 47 -50 147 -135 125 -106 -14 19 -14 19 2 6 10 -7 15 -17 12
-23 -3 -5 10 -27 30 -48 l36 -40 0 120 0 120 31 0 c25 0 30 -4 29 -22 -1 -13
-2 -52 -1 -87 1 -56 3 -62 16 -51 9 7 14 19 11 26 -3 8 0 13 7 11 7 -1 11 4 9
11 -1 8 2 11 7 8 5 -4 12 -2 16 4 3 5 14 10 24 10 15 0 27 15 49 64 3 5 -1 5
-8 1 -9 -6 -11 -4 -6 4 5 7 10 10 14 7 5 -6 31 24 32 37 0 4 -88 7 -195 7
-123 0 -195 4 -195 10 0 13 -27 13 -35 0z"/>
<path d="M0 1035 l0 -1035 5995 0 5995 0 2 1035 3 1035 -1575 0 -1575 0 104
-50 c57 -27 108 -47 114 -43 5 3 7 1 4 -4 -8 -13 20 -26 35 -16 6 3 8 1 5 -4
-8 -13 20 -26 35 -16 7 3 8 1 4 -5 -8 -14 30 -36 46 -26 7 4 8 3 4 -4 -8 -13
30 -36 44 -27 6 4 9 1 8 -6 -2 -6 3 -14 11 -17 9 -3 11 0 6 9 -5 8 -4 11 1 6
5 -5 9 -14 9 -20 0 -7 8 -11 17 -11 10 1 16 -3 15 -10 -1 -6 6 -10 15 -10 10
1 16 -3 15 -10 -1 -6 6 -11 15 -11 9 0 20 -4 25 -9 5 -5 2 -6 -7 -1 -13 8 -13
7 -1 -8 16 -20 36 -23 25 -4 -4 6 2 3 14 -7 26 -23 29 -34 5 -16 -10 7 -5 1
10 -14 16 -14 32 -24 36 -21 4 2 21 -10 37 -28 l29 -32 -35 30 c-27 23 -25 19
10 -18 45 -47 64 -62 39 -29 -11 14 -11 15 1 5 24 -22 20 -40 -9 -36 -24 3
-23 2 4 -7 17 -5 36 -8 43 -5 7 3 11 1 7 -4 -8 -14 510 -184 537 -176 16 4 19
3 10 -3 -11 -7 -11 -10 2 -15 32 -13 17 -29 -21 -23 -27 4 -32 3 -18 -4 11 -5
30 -9 41 -9 15 -1 24 -9 28 -26 4 -16 11 -23 18 -19 7 4 8 3 4 -5 -4 -6 2 -40
14 -76 l21 -64 87 -3 87 -3 3 -137 3 -138 -1806 0 c-1243 0 -1812 -3 -1826
-11 -11 -5 -17 -14 -14 -20 4 -5 3 -8 -2 -7 -16 5 -73 -24 -66 -35 3 -5 2 -8
-3 -4 -5 3 -46 -5 -91 -18 -218 -63 -593 -55 -778 16 -33 13 -64 22 -68 21 -5
-1 -6 2 -2 8 5 9 -7 14 -26 12 -4 -1 -6 6 -5 16 1 16 -108 17 -1811 20 l-1813
2 0 140 0 140 88 0 88 0 27 85 c28 84 28 84 70 94 l42 10 -37 -2 c-28 -2 -38
1 -41 15 -3 10 -1 16 4 12 5 -3 9 -1 9 4 0 5 21 15 46 22 32 9 42 16 32 22 -9
6 -6 7 10 3 27 -8 365 102 357 116 -4 5 0 7 7 4 7 -3 51 8 98 24 64 22 77 30
54 30 -17 1 -34 4 -38 8 -9 10 94 112 108 107 7 -3 21 5 31 16 18 20 18 21 -1
34 -10 8 -22 12 -27 9 -4 -2 -6 -1 -5 4 2 5 -15 29 -37 55 -32 37 -48 47 -83
52 -32 5 -42 3 -36 -5 4 -8 3 -9 -5 -5 -6 4 -9 11 -7 15 8 12 -101 54 -116 45
-7 -4 -10 -3 -6 1 5 5 -22 25 -60 46 -62 35 -106 52 -72 28 13 -9 13 -10 0 -6
-8 2 -15 9 -15 16 0 40 6 40 -1312 41 l-1263 0 0 -1035z"/>
<path d="M3334 2059 c-3 -6 -30 -22 -58 -35 -28 -13 -45 -24 -37 -24 8 0 36
-13 63 -30 52 -33 63 -36 52 -18 -4 6 -3 8 4 4 6 -3 65 21 133 54 l122 60
-136 0 c-88 0 -138 -4 -143 -11z"/>
<path d="M6123 1571 c-112 -41 -227 -152 -286 -274 -37 -76 -63 -169 -52 -186
9 -16 153 -58 239 -70 107 -15 355 -13 448 3 86 16 197 50 221 69 13 11 14 18
1 67 -40 154 -158 307 -287 370 -89 43 -202 52 -284 21z"/>
</g>
</svg>
