<?xml version="1.0" ?><!DOCTYPE svg  PUBLIC '-//W3C//DTD SVG 1.1//EN'  'http://www.w3.org/Graphics/SVG/1.1/DTD/svg11.dtd'><svg enable-background="new 0 0 24 24" height="24px" id="Layer_1" version="1.1" viewBox="0 0 24 24" width="24px" xml:space="preserve" xmlns="http://www.w3.org/2000/svg" xmlns:xlink="http://www.w3.org/1999/xlink"><path d="M12,0.5C5.7,0.5,0.5,5.7,0.5,12c0,6.3,5.2,11.5,11.5,11.5S23.5,18.3,23.5,12C23.5,5.7,18.3,0.5,12,0.5z M16.8,8.8v5v0.4v1.2  c0,0.8-0.6,1.4-1.4,1.4h-0.6c-0.8,0-1.4-0.6-1.4-1.4v-0.6c0-0.8,0.6-1.4,1.4-1.4h1.1V9.4l-5.2,1.6v4.3v0.8v0.8  c0,0.8-0.6,1.4-1.4,1.4H8.6c-0.8,0-1.4-0.6-1.4-1.4v-0.6c0-0.8,0.6-1.4,1.4-1.4h1.1v-4.1V8.1c0-0.2,0.1-0.4,0.3-0.5l6.2-1.9  c0.1,0,0.3,0,0.4,0.1c0.1,0.1,0.2,0.2,0.2,0.4V8.8z"/></svg>