<?xml version="1.0" ?><svg id="Layer_1" style="enable-background:new 0 0 100 100;" version="1.1" viewBox="0 0 100 100" xml:space="preserve" xmlns="http://www.w3.org/2000/svg" xmlns:xlink="http://www.w3.org/1999/xlink"><style type="text/css">
	.st0{fill:url(#Background_13_);}
	.st1{fill:url(#path-2_7_);}
	.st2{filter:url(#Adobe_OpacityMaskFilter);}
	.st3{fill:#FFFFFF;}
	.st4{mask:url(#mask-3_1_);fill:#FFFFFF;}
	.st5{fill:url(#SVGID_1_);}
	.st6{fill:#1E1E1F;}
	.st7{fill:url(#Oval_6_);}
	.st8{stroke:#000000;stroke-width:0.3;}
	.st9{fill:#2B2A2A;}
	.st10{fill:#FF9500;}
	.st11{fill:url(#Background_14_);}
	.st12{fill:url(#path-2_8_);}
	.st13{filter:url(#Adobe_OpacityMaskFilter_1_);}
	.st14{mask:url(#mask-3_2_);}
	.st15{fill:#FFFFFF;fill-opacity:0.7;}
	.st16{fill:url(#Background_15_);}
	.st17{fill:url(#Background_16_);}
	.st18{fill:url(#Background_17_);}
	.st19{filter:url(#Adobe_OpacityMaskFilter_2_);}
	.st20{mask:url(#mask-2_6_);fill-opacity:0.29;}
	.st21{filter:url(#Adobe_OpacityMaskFilter_3_);}
	.st22{mask:url(#mask-2_5_);}
	.st23{fill:url(#path-4_2_);}
	.st24{filter:url(#Adobe_OpacityMaskFilter_4_);}
	.st25{mask:url(#mask-2_4_);}
	.st26{fill:#AAAAAA;}
	.st27{fill:url(#Background_18_);}
	.st28{fill:#141416;}
	.st29{filter:url(#Adobe_OpacityMaskFilter_5_);}
	.st30{mask:url(#mask-2_3_);fill:url(#Chart_1_);stroke:#FFFFFF;stroke-width:0.75;}
	.st31{filter:url(#Adobe_OpacityMaskFilter_6_);}
	.st32{mask:url(#mask-2_2_);}
	.st33{fill:#01A6F1;}
	.st34{filter:url(#Adobe_OpacityMaskFilter_7_);}
	.st35{mask:url(#mask-2_1_);fill:#777778;}
	.st36{fill:url(#Background_19_);}
	.st37{fill:#2E2E30;}
	.st38{fill:#7F7F7F;}
	.st39{fill:#777777;}
	.st40{fill:none;}
	.st41{fill:url(#SVGID_2_);}
	.st42{fill:url(#Oval_7_);}
	.st43{filter:url(#Adobe_OpacityMaskFilter_8_);}
	.st44{mask:url(#mask-3_3_);fill:#FF1414;}
	.st45{filter:url(#Adobe_OpacityMaskFilter_9_);}
	.st46{mask:url(#mask-2_8_);}
	.st47{fill:#1BADF8;}
	.st48{fill:#63DA38;}
	.st49{filter:url(#Adobe_OpacityMaskFilter_10_);}
	.st50{mask:url(#mask-2_7_);}
	.st51{fill:#B7B7B7;}
	.st52{filter:url(#Adobe_OpacityMaskFilter_11_);}
	.st53{mask:url(#mask-2_24_);fill:url(#Red_1_);}
	.st54{filter:url(#Adobe_OpacityMaskFilter_12_);}
	.st55{mask:url(#mask-2_23_);fill:url(#Orange_1_);}
	.st56{filter:url(#Adobe_OpacityMaskFilter_13_);}
	.st57{mask:url(#mask-2_22_);fill:url(#Yellow_1_);}
	.st58{filter:url(#Adobe_OpacityMaskFilter_14_);}
	.st59{mask:url(#mask-2_21_);fill:url(#Green_1_);}
	.st60{filter:url(#Adobe_OpacityMaskFilter_15_);}
	.st61{mask:url(#mask-2_20_);fill:url(#Turquoise_1_);}
	.st62{filter:url(#Adobe_OpacityMaskFilter_16_);}
	.st63{mask:url(#mask-2_19_);fill:url(#Blue_1_);}
	.st64{filter:url(#Adobe_OpacityMaskFilter_17_);}
	.st65{mask:url(#mask-2_18_);fill:url(#Purple_1_);}
	.st66{filter:url(#Adobe_OpacityMaskFilter_18_);}
	.st67{mask:url(#mask-2_17_);fill:url(#Pink_1_);}
	.st68{fill:url(#Background_20_);}
	.st69{fill:#353535;}
	.st70{fill:url(#SVGID_3_);}
</style><g id="Symbols_4_"><g id="Graphics-_x2F_-App-Icons-_x2F_-iTunes-"><g id="iTunes-Icon"><g id="Background_3_"><linearGradient gradientTransform="matrix(60 0 0 -60 11151 44901)" gradientUnits="userSpaceOnUse" id="path-2_7_" x1="-185.0169" x2="-185.0169" y1="748.2662" y2="746.9152"><stop offset="0" style="stop-color:#FC5BC4"/><stop offset="1" style="stop-color:#D03DEF"/></linearGradient><path class="st1" d="M63.6,5c9,0,13.5,0,18.4,1.5c5.3,1.9,9.5,6.1,11.4,11.4C95,22.8,95,27.4,95,36.4v27.2      c0,9,0,13.5-1.5,18.4c-1.9,5.3-6.1,9.5-11.4,11.4C77.1,95,72.6,95,63.6,95H36.4c-9,0-13.5,0-18.4-1.5C12.6,91.5,8.5,87.4,6.5,82      C5,77.2,5,72.7,5,63.6V36.4c0-9,0-13.5,1.5-18.4C8.5,12.7,12.6,8.5,18,6.6C22.8,5,27.3,5,36.4,5H63.6z" id="path-2_4_"/></g><defs><filter filterUnits="userSpaceOnUse" height="65.5" id="Adobe_OpacityMaskFilter" width="68.7" x="15.5" y="17"><feColorMatrix type="matrix" values="1 0 0 0 0  0 1 0 0 0  0 0 1 0 0  0 0 0 1 0"/></filter></defs><mask height="65.5" id="mask-3_2_" maskUnits="userSpaceOnUse" width="68.7" x="15.5" y="17"><g class="st2"><path class="st3" d="M63.6,5c9,0,13.5,0,18.4,1.5c5.3,1.9,9.5,6.1,11.4,11.4C95,22.8,95,27.4,95,36.4v27.2       c0,9,0,13.5-1.5,18.4c-1.9,5.3-6.1,9.5-11.4,11.4C77.1,95,72.6,95,63.6,95H36.4c-9,0-13.5,0-18.4-1.5       C12.6,91.5,8.5,87.4,6.5,82C5,77.2,5,72.7,5,63.6V36.4c0-9,0-13.5,1.5-18.4C8.5,12.7,12.6,8.5,18,6.6C22.8,5,27.3,5,36.4,5       H63.6z" id="path-2_3_"/></g></mask><g class="st14" id="Icon_2_"><g transform="translate(7.000000, 8.000000)"><path class="st15" d="M75.9,32.5l-24.2-0.1L44,9.9c-0.4-1.2-2.1-1.2-2.5,0l-7.2,22.5h0L9.8,32.5       c-1.3,0-1.8,1.6-0.8,2.4L28.2,49l-7.5,23.8c-0.4,1.2,1,2.2,2,1.5L43,60l20,14.2c1,0.7,2.4-0.3,2-1.5L57.5,49l19.2-14.2       C77.7,34.1,77.2,32.5,75.9,32.5" id="Fill-1"/><polygon class="st3" id="Fill-4" points="43,60 57.5,49 51.7,32.4 34.4,32.4 28.3,49      "/></g></g></g></g></g></svg>