<?xml version="1.0" ?><!DOCTYPE svg  PUBLIC '-//W3C//DTD SVG 1.1//EN'  'http://www.w3.org/Graphics/SVG/1.1/DTD/svg11.dtd'><svg height="512px" id="Layer_1" style="enable-background:new 0 0 512 512;" version="1.1" viewBox="0 0 512 512" width="512px" xml:space="preserve" xmlns="http://www.w3.org/2000/svg" xmlns:xlink="http://www.w3.org/1999/xlink"><g><path d="M511.436,255.65c0,141.383-114.623,255.997-256.005,255.997S-0.564,397.033-0.564,255.65   c0-141.383,114.613-256.002,255.995-256.002S511.436,114.267,511.436,255.65z" style="fill:#FFEA00;"/><g><path d="M386.246,262.048c0.116,0.019,0.228,0.027,0.228,0.027c-0.548-0.557-1.039-1.086-1.573-1.634    c-2.707-3.147-5.576-6.198-8.631-9.127c-26.002-28.338-38.43-50.965-20.009-72.33c8.881-10.288,18.087-25.265,18.087-45.209    c0-25.692-15.427-53.398-31.299-46.527c-17.66,7.642-11.755,67.214-70.464,28.231c-5.162-3.44-12.266,11.843-17.159,32.308    c-4.907-20.316-11.955-35.432-17.098-32.015c-58.709,38.988-52.799-20.585-70.459-28.226    c-15.873-6.871-31.304,20.835-31.304,46.532c0,19.939,9.211,34.917,18.092,45.204c17.953,20.822,6.625,42.846-18.045,70.172    c-23.737,21.945-38.119,50.497-38.119,81.759c0,69.155,70.269,125.218,156.948,125.218c86.665,0,156.934-56.063,156.934-125.218    C412.374,305.641,402.741,281.866,386.246,262.048z" style="fill:#E65100;"/><path d="M277.116,249.884V140.543l-1.114-14.967c0,0,15.557,2.303,26.647,13.231c11.101,10.938,6.662,29.926,8.891,43.742    c2.21,13.807,48.296,61.002,42.743,78.848C348.735,279.234,277.116,249.884,277.116,249.884z"/><g><path d="M285.77,416.156c0,8.013-10.979,49.331-18.992,49.331h-24.271     c-8.018,0-17.414-41.318-17.414-49.331l0,0c0-8.009,6.495-14.499,14.512-14.499h31.648     C279.266,401.657,285.77,408.147,285.77,416.156L285.77,416.156z" style="fill:#CCDDE1;"/><g><g><path d="M226.42,346.519c-3.068,0-5.538,2.479-5.538,5.538v52.229c0,3.064,2.47,5.543,5.538,5.543       c3.05,0,5.539-2.479,5.539-5.543v-52.229C231.958,348.997,229.47,346.519,226.42,346.519z" style="fill:#9EACB5;"/><path d="M284.451,346.519c-3.06,0-5.543,2.479-5.543,5.538v52.229c0,3.064,2.483,5.543,5.543,5.543       c3.063,0,5.533-2.479,5.533-5.543v-52.229C289.984,348.997,287.515,346.519,284.451,346.519z" style="fill:#9EACB5;"/></g><rect height="6.5" style="fill:#CCDDE1;" width="56.657" x="227.112" y="355.371"/><rect height="6.509" style="fill:#CCDDE1;" width="56.657" x="227.112" y="386.652"/></g></g><g><path d="M186.606,240.832c-3.7-0.441-7.01,1.792-7.4,4.986c-0.195,1.62,0.399,3.171,1.514,4.378     c-4.383,1.026-11.017,3.621-15.158,10.283c-4.517,7.237-6.903,18.983-7.967,25.71c-1.731,1.013-2.938,2.86-2.938,5.07     c0,2.103,1.109,3.857,2.707,4.911c-0.098,7.428-0.892,19.304-4.689,26.978c-3.575,7.233-7.781,10.172-10.622,11.63     c-1.012-0.636-2.177-1.105-3.51-1.175c-3.709-0.172-6.848,2.294-6.996,5.521c-0.153,3.212,2.73,5.97,6.448,6.146     c3.714,0.172,6.857-2.303,7.015-5.516c0.074-1.634-0.641-3.134-1.829-4.252c4.28-1.347,10.715-4.43,14.354-11.365     c4.415-8.385,5.798-22.107,6.221-28.255c1.355-1.081,2.298-2.706,2.298-4.623c0-1.886-0.905-3.491-2.229-4.578     c0.757-7.409,2.488-18.036,6.504-24.865c4.109-6.945,8.51-9.568,11.448-10.817c0.966,0.706,2.089,1.272,3.417,1.43     c3.682,0.446,6.996-1.787,7.396-4.991C192.971,244.234,190.292,241.277,186.606,240.832z"/><path d="M324.274,240.832c3.695-0.441,7.01,1.792,7.396,4.986c0.181,1.62-0.409,3.171-1.514,4.378     c4.368,1.026,11.021,3.621,15.153,10.283c4.508,7.237,6.907,18.983,7.971,25.71c1.723,1.013,2.943,2.86,2.943,5.07     c0,2.103-1.123,3.857-2.721,4.911c0.111,7.428,0.905,19.304,4.689,26.978c3.569,7.233,7.79,10.172,10.622,11.63     c1.025-0.636,2.172-1.105,3.51-1.175c3.723-0.172,6.852,2.294,7.01,5.521c0.148,3.212-2.744,5.97-6.463,6.146     c-3.714,0.172-6.852-2.303-7-5.516c-0.074-1.634,0.631-3.134,1.819-4.252c-4.28-1.347-10.724-4.43-14.354-11.365     c-4.405-8.385-5.803-22.107-6.226-28.255c-1.355-1.081-2.298-2.706-2.298-4.623c0-1.886,0.9-3.491,2.229-4.578     c-0.743-7.409-2.475-18.036-6.504-24.865c-4.095-6.945-8.51-9.568-11.435-10.817c-0.979,0.706-2.099,1.272-3.431,1.43     c-3.682,0.446-7.001-1.787-7.382-4.991C317.904,244.234,320.579,241.277,324.274,240.832z"/></g><g><rect height="40.789" style="fill:#CCDDE1;" width="71.935" x="219.47" y="216.783"/><rect height="29.912" style="fill:#9EACB5;" width="61.304" x="224.786" y="222.224"/></g><g><g><path d="M231.425,278.854c0,5.246-4.248,9.499-9.494,9.499s-9.494-4.253-9.494-9.499      c0-5.236,4.248-9.494,9.494-9.494S231.425,273.617,231.425,278.854z" style="fill:#CCDDE1;"/><path d="M298.435,278.854c0,5.246-4.258,9.499-9.499,9.499c-5.246,0-9.498-4.253-9.498-9.499      c0-5.236,4.252-9.494,9.498-9.494C294.177,269.359,298.435,273.617,298.435,278.854z" style="fill:#CCDDE1;"/></g><path d="M292.636,278.854c0,3.649-2.957,6.602-6.606,6.602h-61.197c-3.63,0-6.588-2.952-6.588-6.602l0,0     c0-3.64,2.958-6.588,6.588-6.588h61.197C289.679,272.266,292.636,275.214,292.636,278.854L292.636,278.854z" style="fill:#9EACB5;"/></g><g><g><path d="M231.425,317.596c0,5.241-4.248,9.498-9.494,9.498s-9.494-4.257-9.494-9.498      c0-5.251,4.248-9.494,9.494-9.494S231.425,312.345,231.425,317.596z" style="fill:#CCDDE1;"/><path d="M298.435,317.596c0,5.241-4.258,9.498-9.499,9.498c-5.246,0-9.498-4.257-9.498-9.498      c0-5.251,4.252-9.494,9.498-9.494C294.177,308.102,298.435,312.345,298.435,317.596z" style="fill:#CCDDE1;"/></g><path d="M292.636,317.596c0,3.644-2.957,6.587-6.606,6.587h-61.197c-3.63,0-6.588-2.943-6.588-6.587l0,0     c0-3.645,2.958-6.598,6.588-6.598h61.197C289.679,310.998,292.636,313.951,292.636,317.596L292.636,317.596z" style="fill:#9EACB5;"/></g><path d="M340.374,387.507c0,5.251-4.252,9.499-9.498,9.499c-5.241,0-9.499-4.248-9.499-9.499    c0-5.241,4.258-9.498,9.499-9.498C336.122,378.009,340.374,382.266,340.374,387.507z" style="fill:#CCDDE1;"/><path d="M370.36,355.307c0,5.246-4.253,9.498-9.499,9.498c-5.241,0-9.494-4.252-9.494-9.498    c0-5.241,4.253-9.494,9.494-9.494C366.107,345.813,370.36,350.065,370.36,355.307z" style="fill:#CCDDE1;"/><path d="M374.896,308.52c1.746,1.755,1.569,4.772-0.408,6.74l-90.311,90.316    c-1.968,1.978-4.985,2.153-6.736,0.403l0,0c-1.759-1.755-1.578-4.772,0.391-6.736l90.314-90.325    C370.123,306.95,373.141,306.765,374.896,308.52L374.896,308.52z" style="fill:#CCDDE1;"/></g><path d="M278.462,0.729c-7.59-0.678-15.265-1.082-23.031-1.082s-15.44,0.404-23.031,1.082v135.822h46.063   V0.729z" style="fill:#755440;"/><rect height="8.097" style="fill:#CCDDE1;" width="32.423" x="239.229" y="103.756"/><rect height="8.106" style="fill:#CCDDE1;" width="32.423" x="239.229" y="74.123"/><rect height="8.106" style="fill:#CCDDE1;" width="32.423" x="239.229" y="46.263"/><rect height="8.106" style="fill:#CCDDE1;" width="32.423" x="239.229" y="19.411"/><g><rect height="40.794" style="fill:#CCDDE1;" width="71.935" x="219.466" y="133.134"/><rect height="29.912" style="fill:#9EACB5;" width="61.304" x="224.781" y="138.575"/></g></g></svg>