<?xml version="1.0" ?><svg id="Layer_1" style="enable-background:new 0 0 65 65;" version="1.1" viewBox="0 0 65 65" xml:space="preserve" xmlns="http://www.w3.org/2000/svg" xmlns:xlink="http://www.w3.org/1999/xlink"><style type="text/css">
	.st0{fill:#1C1F20;}
</style><g><path class="st0" d="M56.4,62.8h-16c-0.4,0-0.8,0.3-0.8,0.8s0.3,0.8,0.8,0.8h16c0.4,0,0.8-0.3,0.8-0.8S56.8,62.8,56.4,62.8z"/><path class="st0" d="M62.4,62.8h-2c-0.4,0-0.8,0.3-0.8,0.8s0.3,0.8,0.8,0.8h2c0.4,0,0.8-0.3,0.8-0.8S62.8,62.8,62.4,62.8z"/><path class="st0" d="M18.4,9.3c0.4,0,0.8-0.3,0.8-0.8v-7c0-0.4-0.3-0.8-0.8-0.8s-0.8,0.3-0.8,0.8v7C17.6,8.9,17.9,9.3,18.4,9.3z"/><path class="st0" d="M18.4,14.3c0.4,0,0.8-0.3,0.8-0.8v-1c0-0.4-0.3-0.8-0.8-0.8s-0.8,0.3-0.8,0.8v1C17.6,13.9,17.9,14.3,18.4,14.3   z"/><path class="st0" d="M58.4,20.3h1.3v1.3c0,0.4,0.3,0.8,0.8,0.8s0.8-0.3,0.8-0.8v-1.3h1.3c0.4,0,0.8-0.3,0.8-0.8s-0.3-0.8-0.8-0.8   h-1.3v-1.3c0-0.4-0.3-0.8-0.8-0.8s-0.8,0.3-0.8,0.8v1.3h-1.3c-0.4,0-0.8,0.3-0.8,0.8S57.9,20.3,58.4,20.3z"/><path class="st0" d="M31.4,9.3h1.3v1.3c0,0.4,0.3,0.8,0.8,0.8s0.8-0.3,0.8-0.8V9.3h1.3c0.4,0,0.8-0.3,0.8-0.8s-0.3-0.8-0.8-0.8   h-1.3V6.5c0-0.4-0.3-0.8-0.8-0.8s-0.8,0.3-0.8,0.8v1.3h-1.3c-0.4,0-0.8,0.3-0.8,0.8S30.9,9.3,31.4,9.3z"/><path class="st0" d="M63.2,31c-0.4-1.5-1.3-2.7-2.9-3.6c-1.3-0.8-3-1.2-4.7-1.2H48c-0.3-0.2-0.3-0.3-0.3-0.5c-0.2-1,1.3-3,2.4-4.1   c0.1-0.1,0.1-0.1,0.1-0.2C55.6,11,50.2,6.4,50,6.2c0,0-0.1,0-0.1-0.1c-1.4-0.8-2.6-1-3.7-0.4c-2.4,1.3-2.9,5.5-3,6.4   c-0.9,2.4-3.6,5.3-5.6,7.3c-1.8,1.9-3.6,4-5.1,6.3c-1.7,2.6-2.9,4.3-3.4,5c-1.1,1.4-2.4,1.5-2.4,1.5h-2.5v-2.9   c0-0.4-0.3-0.8-0.8-0.8H10.8c-0.4,0-0.8,0.3-0.8,0.8v2.4H2.4c-0.4,0-0.7,0.3-0.7,0.8s0.3,0.8,0.7,0.8h7.7v22.3H2.4   c-0.4,0-0.7,0.3-0.7,0.8S1.9,57,2.4,57h7.7v1.7c0,0.4,0.3,0.8,0.8,0.8h12.6c0.4,0,0.8-0.3,0.8-0.8v-2.2h1.9   c0.6,1.2,2.2,1.6,3.2,1.7h26.5c0,0,0.1,0,0.1,0c1.8-0.3,3-1.1,3.7-2.4c0.8-1.5,0.4-3.3,0.1-4.3c2.4-1.8,2.1-5,1.5-6.9   c2.9-2.5,2-6.1,0.8-8C63.2,34.6,63.7,32.7,63.2,31z M22.7,58H11.6V30.1h11.1V58z M60.7,36H50.4c-0.4,0-0.8,0.3-0.8,0.8   s0.3,0.8,0.8,0.8h10.4c0.6,1,2.1,4.1-0.7,6.2h-9.7c-0.4,0-0.8,0.3-0.8,0.8s0.3,0.8,0.8,0.8h9.4c0.3,1.1,1,4-1.2,5.4h-8.2   c-0.4,0-0.8,0.3-0.8,0.8s0.3,0.8,0.8,0.8h7.9c0.2,0.7,0.5,2,0,3.1c-0.4,0.8-1.3,1.3-2.5,1.6l-26.3,0c-0.4,0-1.9-0.3-2.1-1.1   c-0.1-0.4-0.4-0.6-0.7-0.6h-2.4V33.7h2.5c0.1,0,2.1,0,3.6-2.1c0.5-0.7,1.7-2.4,3.5-5.1c1.5-2.2,3.1-4.2,4.9-6c2.2-2.2,5-5.3,6-8   c0-0.1,0-0.1,0-0.2c0.1-1.2,0.6-4.5,2.2-5.3c0.6-0.3,1.3-0.2,2.2,0.3c0.4,0.4,4.4,4.3-0.2,13.3c-0.6,0.6-3.1,3.3-2.7,5.3   c0.1,0.5,0.4,1.2,1.3,1.6c0.1,0,0.2,0.1,0.3,0.1h7.8c1.5,0,2.9,0.3,4,1c1.2,0.7,1.9,1.6,2.2,2.7C62.1,32.7,61.7,34.2,60.7,36z"/><path class="st0" d="M17.1,49.6c-1.6,0-2.9,1.3-2.9,2.9s1.3,2.9,2.9,2.9s2.9-1.3,2.9-2.9S18.7,49.6,17.1,49.6z M17.1,53.8   c-0.7,0-1.4-0.6-1.4-1.4s0.6-1.4,1.4-1.4s1.4,0.6,1.4,1.4S17.9,53.8,17.1,53.8z"/></g></svg>