<?xml version="1.0" encoding="UTF-8"?>
<!DOCTYPE svg PUBLIC "-//W3C//DTD SVG 1.1//EN" "http://www.w3.org/Graphics/SVG/1.1/DTD/svg11.dtd">
<!-- Creator: CorelDRAW 2020 (64-Bit Versión de evaluación) -->
<svg xmlns="http://www.w3.org/2000/svg" xml:space="preserve" width="215.9mm" height="279.4mm" version="1.1" style="shape-rendering:geometricPrecision; text-rendering:geometricPrecision; image-rendering:optimizeQuality; fill-rule:evenodd; clip-rule:evenodd"
viewBox="0 0 21590 27940"
 xmlns:xlink="http://www.w3.org/1999/xlink"
 xmlns:xodm="http://www.corel.com/coreldraw/odm/2003">
 <defs>
  <style type="text/css">
   <![CDATA[
    .fil0 {fill:#FEFEFE;fill-rule:nonzero}
   ]]>
  </style>
 </defs>
 <g id="Capa_x0020_1">
  <metadata id="CorelCorpID_0Corel-Layer"/>
  <g id="Style_2_copy_3">
   <g>
    <path class="fil0" d="M10795 3175c-5962.21,0 -10795,4832.79 -10795,10795 0,5961.54 4832.79,10795 10795,10795 5962.21,0 10795,-4833.46 10795,-10795 0,-5962.21 -4832.79,-10795 -10795,-10795z"/>
   </g>
   <g>
    <path class="fil0" d="M9491.5 9442.17c-831.22,-20.24 -1750.14,43.85 -2665.69,184.86 -646.35,96.48 -1288.65,216.57 -1906.67,429.78 -469.58,160.58 -706.4,670.64 -549.87,1119.98 164.62,473.63 650.4,718.54 1128.08,574.16 1184.08,-353.54 2404.59,-481.73 3633.19,-525.58 802.88,-28.34 1601.71,24.29 2396.49,108.62 971.55,100.53 1926.91,284.72 2862.02,562.01 794.78,236.82 1553.81,557.97 2276.4,967.5 417.63,236.82 879.12,144.38 1164.51,-212.53 288.77,-365.01 269.2,-815.02 -51.95,-1167.88 -116.72,-132.24 -277.3,-208.48 -429.78,-292.81 -911.5,-501.97 -1874.96,-866.97 -2878.22,-1132.13 -1594.27,-431.11 -3224.32,-636.22 -4978.51,-615.98zm-72.19 3299.9c-333.3,8.1 -634.21,16.19 -935.12,32.39 -1003.94,47.9 -1982.91,224.67 -2946.36,510.06 -433.82,128.19 -646.35,525.58 -518.16,955.36 112.67,377.15 522.21,590.35 931.07,481.73 140.34,-36.43 281.34,-88.38 425.73,-120.77 1597.66,-393.34 3215.56,-445.29 4841.56,-220.62 1537.61,208.48 2994.94,658.5 4327.45,1465.42 397.39,240.86 835.26,64.1 1019.45,-228.72 232.77,-365.01 120.77,-835.26 -253.01,-1063.98 -473.63,-292.81 -967.5,-545.82 -1477.57,-754.98 -1749.46,-714.5 -3568.42,-1047.8 -5415.04,-1055.89zm-389.29 3155.51c-300.91,12.14 -602.5,28.34 -899.36,56 -766.45,64.1 -1521.42,197.01 -2272.35,369.05 -345.44,80.29 -537.73,393.34 -465.53,706.4 76.24,337.34 369.05,522.21 730.69,453.39 197.01,-36.43 393.34,-76.24 590.35,-116.72 802.88,-172.72 1621.95,-248.96 2441.02,-281.34 533.68,-20.24 1068.03,12.14 1597.66,68.14 923.65,96.48 1810.86,317.1 2665.69,674.69 413.58,172.72 798.83,397.39 1196.22,605.87 284.72,148.43 638.25,40.48 782.64,-228.72 164.62,-304.96 76.24,-638.25 -216.57,-815.02 -465.53,-284.72 -955.36,-522.21 -1465.42,-730.69 -1501.87,-620.71 -3075.24,-805.58 -4685.04,-761.05z"/>
   </g>
  </g>
 </g>
</svg>
