<?xml version="1.0" encoding="UTF-8" standalone="no"?>
<svg
   xmlns:dc="http://purl.org/dc/elements/1.1/"
   xmlns:cc="http://creativecommons.org/ns#"
   xmlns:rdf="http://www.w3.org/1999/02/22-rdf-syntax-ns#"
   xmlns:svg="http://www.w3.org/2000/svg"
   xmlns="http://www.w3.org/2000/svg"
   xmlns:sodipodi="http://sodipodi.sourceforge.net/DTD/sodipodi-0.dtd"
   xmlns:inkscape="http://www.inkscape.org/namespaces/inkscape"
   height="512px"
   id="Layer_1"
   style="enable-background:new 0 0 512 512;"
   version="1.1"
   viewBox="0 0 512 512"
   width="512px"
   xml:space="preserve"
   sodipodi:docname="youtube.svg"
   inkscape:version="0.92.2 (5c3e80d, 2017-08-06)"><metadata
     id="metadata3922"><rdf:RDF><cc:Work
         rdf:about=""><dc:format>image/svg+xml</dc:format><dc:type
           rdf:resource="http://purl.org/dc/dcmitype/StillImage" /></cc:Work></rdf:RDF></metadata><defs
     id="defs3920" /><sodipodi:namedview
     pagecolor="#ffffff"
     bordercolor="#666666"
     borderopacity="1"
     objecttolerance="10"
     gridtolerance="10"
     guidetolerance="10"
     inkscape:pageopacity="0"
     inkscape:pageshadow="2"
     inkscape:window-width="1920"
     inkscape:window-height="1017"
     id="namedview3918"
     showgrid="false"
     inkscape:zoom="0.58695387"
     inkscape:cx="614.20191"
     inkscape:cy="-202.45082"
     inkscape:window-x="-8"
     inkscape:window-y="-8"
     inkscape:window-maximized="1"
     inkscape:current-layer="Layer_1" /><g
     id="g3915"
     style="fill:#ffffff"><g
       id="g3909"
       style="fill:#ffffff"><path
         d="M265,96c65.3,0,118.7,1.1,168.1,3.3l0.7,0h0.7c23.1,0,42,22,42,49.1v1.1l0.1,1.1c2.3,34,3.4,69.3,3.4,104.9v0v0    c0.1,35.6-1.1,70.9-3.4,104.9l-0.1,1.1v1.1c0,13.8-4.7,26.6-13.4,36.1c-7.8,8.6-18,13.4-28.6,13.4h-0.8l-0.8,0    c-52.9,2.5-108.8,3.8-166.4,3.8c-3.5,0-7.1,0-10.6,0H256h-0.1c-3.6,0-7.2,0-10.8,0c-57.8,0-113.7-1.3-166.2-3.7l-0.8,0h-0.8    c-10.6,0-20.7-4.8-28.5-13.4c-8.6-9.5-13.4-22.3-13.4-36.1v-1.1l-0.1-1.1c-2.4-34.1-3.5-69.4-3.3-104.7v-0.1v-0.1    c-0.1-35.3,1-70.5,3.3-104.6l0.1-1.1v-1.1c0-27.2,18.8-49.3,41.9-49.3H78l0.7,0c49.5-2.3,102.9-3.3,168.2-3.3h9H265 M265,64    c-3,0-6,0-9,0s-6,0-9,0c-57.6,0-114.2,0.8-169.6,3.3c-40.8,0-73.9,36.3-73.9,81.3C1,184.4-0.1,220,0,255.7    c-0.1,35.7,0.9,71.3,3.4,107c0,45,33.1,81.6,73.9,81.6c54.8,2.6,110.7,3.8,167.8,3.8c3.6,0,7.3,0,10.9,0c3.6,0,7.2,0,10.7,0    c57.1,0,113-1.2,167.9-3.8c40.9,0,74-36.6,74-81.6c2.4-35.7,3.5-71.4,3.4-107.1c0.1-35.7-1-71.3-3.4-107.1c0-45-33.1-81.1-74-81.1    C379.2,64.8,322.7,64,265,64L265,64z"
         id="path3907"
         style="fill:#ffffff" /></g><g
       id="g3913"
       style="fill:#ffffff"><path
         d="M207,353.8V157.4l145,98.2L207,353.8z"
         id="path3911"
         style="fill:#ffffff" /></g></g></svg>