<?xml version="1.0" ?><svg id="outine" viewBox="0 0 48 48" xmlns="http://www.w3.org/2000/svg"><title/><path d="M23.668,29.562V27.021a.75.75,0,0,0-1.5,0v2.541a1.776,1.776,0,0,1-1.774,1.774H16.146a.75.75,0,0,0,0,1.5h4.248A3.277,3.277,0,0,0,23.668,29.562Z"/><path d="M31.869,31.336H27.676A1.776,1.776,0,0,1,25.9,29.562V27.021a.75.75,0,0,0-1.5,0v2.541a3.277,3.277,0,0,0,3.274,3.274h4.193a.75.75,0,0,0,0-1.5Z"/><path d="M38.682,27.674c-1.556.481-2.875.761-2.888.764a.75.75,0,0,0-.59.65l-2.03,18.079a.749.749,0,0,0,.662.828A.6.6,0,0,0,33.92,48a.75.75,0,0,0,.745-.667l1.97-17.548c.547-.129,1.461-.36,2.49-.679a.749.749,0,1,0-.443-1.432Z"/><path d="M40.5,6.7a6.729,6.729,0,0,0-3.809-.668c-1.521.246-3.773,1.65-3.773,3.883a3.892,3.892,0,0,0,5.7,3.447l.971,5.881-2.923-.631a.738.738,0,0,0-.54.087l-4.387,2.591-4.3-.768V18.192a5.464,5.464,0,0,0,1.871-2.837,3.658,3.658,0,0,0,.781-.2c1.308-.493,2.172-2.285,1.967-4.079a1.84,1.84,0,0,0-.725-1.356,1.783,1.783,0,0,0-.6-.278,6.351,6.351,0,0,0,.78-1.142,6.651,6.651,0,0,0,.737-3.181A7.279,7.279,0,0,0,30.806.459a.754.754,0,0,0-.57-.265.7.7,0,0,0-.572.262c-.007.007-.7.773-1.351.647a9.372,9.372,0,0,1-1.2-.355A11.565,11.565,0,0,0,22.917,0a9.238,9.238,0,0,0-4.762,1.072.75.75,0,0,0,.772,1.286,7.929,7.929,0,0,1,3.99-.858,10.005,10.005,0,0,1,3.71.664,10.366,10.366,0,0,0,1.393.407,2.714,2.714,0,0,0,2.047-.5,6.091,6.091,0,0,1,.692,3.006,5.236,5.236,0,0,1-.57,2.536,5.63,5.63,0,0,1-.979,1.3,2.921,2.921,0,0,0-1.231-1.94,1.064,1.064,0,0,0-1.037.129,3.594,3.594,0,0,1-3.154.846,6.409,6.409,0,0,1-2.422-.837.752.752,0,0,0-1.128.378A6.586,6.586,0,0,1,19.3,9.1c-.05.066-.1.129-.15.187a5.113,5.113,0,0,1-1.735-4.8,3.356,3.356,0,0,1,.318-.9.75.75,0,1,0-1.324-.7,4.853,4.853,0,0,0-.463,1.3,6.24,6.24,0,0,0,1.309,5.26,1.768,1.768,0,0,0-.617.281,1.839,1.839,0,0,0-.724,1.356c-.205,1.8.659,3.586,1.967,4.079a3.643,3.643,0,0,0,.781.2,5.446,5.446,0,0,0,1.9,2.853v2.317l-4.3.768L11.868,18.7a.745.745,0,0,0-.54-.087L8.4,19.246l.971-5.881a3.892,3.892,0,0,0,5.7-3.447c0-2.233-2.252-3.637-3.773-3.883A6.72,6.72,0,0,0,7.5,6.7C3.52,8.331.366,21.405.02,22.891a.749.749,0,0,0,.2.7,33.451,33.451,0,0,0,4.367,3.687,25.165,25.165,0,0,0,6.779,2.508l1.97,17.547A.75.75,0,0,0,14.08,48,.6.6,0,0,0,14.164,48a.749.749,0,0,0,.662-.828L12.8,29.088a.75.75,0,0,0-.59-.65c-.046-.01-4.59-.98-6.8-2.417a30.287,30.287,0,0,1-3.826-3.2c1.29-5.351,4.091-13.75,6.487-14.731a5.354,5.354,0,0,1,3-.575c1.027.166,2.513,1.117,2.513,2.4A2.393,2.393,0,0,1,9.4,11.511a.75.75,0,0,0-1.3.378l-1.356,8.2a.75.75,0,0,0,.9.855l3.715-.8,4.374,2.583a.759.759,0,0,0,.514.092l5.189-.927a.75.75,0,0,0,.618-.738V19.044A5.591,5.591,0,0,0,24,19.4a5.533,5.533,0,0,0,1.95-.358v2.115a.75.75,0,0,0,.618.738l5.189.927a.763.763,0,0,0,.514-.092l4.374-2.583,3.715.8a.75.75,0,0,0,.9-.855l-1.356-8.2a.75.75,0,0,0-1.3-.378,2.393,2.393,0,0,1-4.179-1.593c0-1.285,1.486-2.236,2.513-2.4a5.358,5.358,0,0,1,3,.575c2.4.981,5.2,9.38,6.487,14.731a30.24,30.24,0,0,1-3.826,3.2,10.861,10.861,0,0,1-1.687.858.75.75,0,0,0,.29,1.442.761.761,0,0,0,.289-.058,12.3,12.3,0,0,0,1.926-.985,33.451,33.451,0,0,0,4.367-3.687.749.749,0,0,0,.2-.7C47.634,21.405,44.48,8.331,40.5,6.7ZM29.571,13.755c-.021.008-.04.011-.06.018v-2.85a1.708,1.708,0,0,1,.953.018c.076.055.1.235.112.309A2.557,2.557,0,0,1,29.571,13.755ZM17.4,11.25c.009-.075.037-.254.112-.309a1.705,1.705,0,0,1,.952-.018v2.85c-.02-.007-.038-.01-.059-.018A2.557,2.557,0,0,1,17.4,11.25ZM23.977,17.9a3.986,3.986,0,0,1-4.014-3.949V10.616a7.353,7.353,0,0,0,.522-.606,9.172,9.172,0,0,0,.808-1.244,8.335,8.335,0,0,0,2.289.666,4.842,4.842,0,0,0,3.9-.879,8.609,8.609,0,0,1,.531,1.826v3.568A3.991,3.991,0,0,1,23.977,17.9Z"/><path d="M22.992,33.465a.75.75,0,0,0-.75.75v.66a.585.585,0,0,1-.584.585H19.614a.75.75,0,1,0,0,1.5h2.044a2.087,2.087,0,0,0,2.084-2.085v-.66A.75.75,0,0,0,22.992,33.465Z"/><path d="M22.992,37.588a.75.75,0,0,0-.75.75V39a.585.585,0,0,1-.584.584H19.614a.75.75,0,0,0,0,1.5h2.044A2.087,2.087,0,0,0,23.742,39v-.661A.75.75,0,0,0,22.992,37.588Z"/><path d="M28.456,35.46H26.412a.585.585,0,0,1-.585-.585v-.66a.75.75,0,0,0-1.5,0v.66a2.087,2.087,0,0,0,2.085,2.085h2.044a.75.75,0,0,0,0-1.5Z"/><path d="M28.456,39.583H26.412A.585.585,0,0,1,25.827,39v-.661a.75.75,0,0,0-1.5,0V39a2.087,2.087,0,0,0,2.085,2.084h2.044a.75.75,0,1,0,0-1.5Z"/><path d="M22.992,41.906a.75.75,0,0,0-.75.75v.661a.585.585,0,0,1-.584.584H19.614a.75.75,0,1,0,0,1.5h2.044a2.087,2.087,0,0,0,2.084-2.084v-.661A.75.75,0,0,0,22.992,41.906Z"/><path d="M28.456,43.9H26.412a.585.585,0,0,1-.585-.584v-.661a.75.75,0,0,0-1.5,0v.661A2.087,2.087,0,0,0,26.412,45.4h2.044a.75.75,0,0,0,0-1.5Z"/></svg>