<?xml version="1.0" ?><svg enable-background="new 0 0 512 512" id="Layer_1" version="1.1" viewBox="0 0 512 512" xml:space="preserve" xmlns="http://www.w3.org/2000/svg" xmlns:xlink="http://www.w3.org/1999/xlink"><g><g><linearGradient gradientUnits="userSpaceOnUse" id="SVGID_1_" x1="-0.0000027" x2="512" y1="256" y2="256"><stop offset="0" style="stop-color:#33B49D"/><stop offset="1" style="stop-color:#00A185"/></linearGradient><circle cx="256" cy="256" fill="url(#SVGID_1_)" r="256"/><linearGradient gradientUnits="userSpaceOnUse" id="SVGID_2_" x1="42.6666641" x2="469.3333435" y1="256.0005188" y2="256.0005188"><stop offset="0" style="stop-color:#00A185"/><stop offset="1" style="stop-color:#33B49D"/></linearGradient><path d="M256,469.3338623c-117.6315002,0-213.3333435-95.7023926-213.3333435-213.3333435    c0-117.6314545,95.7018356-213.333313,213.3333435-213.333313c117.6357117,0,213.3333435,95.7018661,213.3333435,213.333313    C469.3333435,373.6314697,373.6357117,469.3338623,256,469.3338623z" fill="url(#SVGID_2_)"/></g><path d="M383.3503723,308.9056091V144.0101318l-160.186676,37.0522614v142.2282867   c-1.6650238-1.4815979-3.5077209-2.8426819-5.5583649-4.0410767c-10.3600311-6.0634766-24.1098938-7.4485474-37.6213379-3.8186646   c-23.7765503,6.3493347-39.2453613,26.4501343-34.4709625,44.7824097   c1.9578705,7.4485168,6.9226685,13.6538391,14.2757416,17.9994507c6.587738,3.8197327,14.4655914,5.7765503,22.8682709,5.7765503   c4.8223877,0,9.7872009-0.6677551,14.753067-2.0048218c20.729599-5.5493164,35.0810547-21.5167847,35.2650604-37.6442566h0.0373383   V234.7200012l141.0890656-32.633606v86.3413391c-1.6640015-1.4768066-3.5088196-2.8346558-5.5668945-4.0298767   c-10.3600464-6.063446-24.062439-7.3999939-37.6213379-3.8197327   c-23.776001,6.3493347-39.1968384,26.4490662-34.4229736,44.7829285   c1.9578552,7.4954834,6.8746643,13.7029419,14.2277222,17.9989624c6.5882874,3.8197327,14.5136108,5.7770386,22.8688049,5.7770386   c4.8218689,0,9.7872009-0.6682434,14.752533-2.0047913C369.0218201,341.5274658,383.5114441,325.2522583,383.3503723,308.9056091z" opacity="0.3"/><path d="M375.3503723,300.9056091V136.0101318l-160.186676,37.0522614v142.2282867   c-1.6650238-1.4815979-3.5077209-2.8426819-5.5583649-4.0410767c-10.3600311-6.0634766-24.1098938-7.4485474-37.6213379-3.8186646   c-23.7765503,6.3493347-39.2453613,26.4501343-34.4709625,44.7824097   c1.9578705,7.4485168,6.9226685,13.6538391,14.2757416,17.9994507c6.587738,3.8197327,14.4655914,5.7765503,22.8682709,5.7765503   c4.8223877,0,9.7872009-0.6677551,14.753067-2.0048218c20.729599-5.5493164,35.0810547-21.5167847,35.2650604-37.6442566h0.0373383   V226.7200012l141.0890656-32.633606v86.3413391c-1.6640015-1.4768066-3.5088196-2.8346558-5.5668945-4.0298767   c-10.3600464-6.063446-24.062439-7.3999939-37.6213379-3.8197327   c-23.776001,6.3493347-39.1968384,26.4490662-34.4229736,44.7829285   c1.9578552,7.4954834,6.8746643,13.7029419,14.2277222,17.9989624c6.5882874,3.8197327,14.5136108,5.7770386,22.8688049,5.7770386   c4.8218689,0,9.7872009-0.6682434,14.752533-2.0047913C361.0218201,333.5274658,375.5114441,317.2522583,375.3503723,300.9056091z" fill="#FFFFFF"/></g></svg>