<?xml version="1.0" ?><svg height="60px" version="1.1" viewBox="0 0 60 60" width="60px" xmlns="http://www.w3.org/2000/svg" xmlns:xlink="http://www.w3.org/1999/xlink"><title/><desc/><defs/><g fill="none" fill-rule="evenodd" id="Page-1" stroke="none" stroke-width="1"><g id="001---play" transform="translate(1.000000, 1.000000)"><g fill-rule="nonzero" id="Icons"><path d="M58,29 C57.9846973,36.6755537 54.9206045,44.0305897 49.4819168,49.4467724 C44.0432292,54.8629552 36.6755511,57.896524 29,57.88 C28.33,57.88 27.66,57.86 27,57.8 C11.8148168,56.8192902 1.57651669e-14,44.216819 1.39888101e-14,29 C1.22124533e-14,13.783181 11.8148168,1.18070975 27,0.2 C27.66,0.14 28.33,0.12 29,0.12 C36.6755511,0.103475955 44.0432292,3.13704484 49.4819168,8.55322756 C54.9206045,13.9694103 57.9846973,21.3244463 58,29 Z" fill="#424242" id="Shape"/><ellipse cx="27" cy="29" fill="#9E9E9E" id="Oval" rx="27" ry="28.79999"/><path d="M55,29 C54.951764,43.3199666 43.3200365,54.8980092 29,54.88 C28.16,54.88 27.33,54.84 26.5,54.76 C13.1870891,53.5358138 3.00007599,42.3690773 3.00007599,29 C3.00007599,15.6309227 13.1870891,4.46418623 26.5,3.24 C27.33,3.16 28.16,3.12 29,3.12 C43.3200433,3.10197426 54.9517805,14.6800265 55,29 Z" fill="#2E7D32" id="Shape"/><ellipse cx="26.5" cy="29" fill="#4CAF50" id="Oval" rx="23.5" ry="25.76001"/><path d="M29,54.875 C14.7258624,54.8062083 3.20367241,43.1910968 3.24953355,28.9168671 C3.29539468,14.6426374 14.8919815,3.1018034 29.1662665,3.12473387 C43.4405514,3.14766433 54.9999997,14.7256966 55,29 C54.9492389,43.3181062 43.3181845,54.893242 29,54.875 Z M29,5.125 C15.8304243,5.19376862 5.20363798,15.9134441 5.24948467,29.0831195 C5.29533136,42.2527949 15.9964946,52.898223 29.1662298,52.8752983 C42.3359651,52.8523737 53.0000025,42.1697552 53,29 C52.950323,15.7860145 42.2140648,5.10567421 29,5.125 Z" fill="#24AE5F" id="Shape"/><path d="M39.57,29.83 L38.18,30.8 L23.55,40.93 C23.2447939,41.1383864 22.8490011,41.1596689 22.5232088,40.9852125 C22.1974166,40.810756 21.9957375,40.4695368 22,40.1 L22,17.9 C21.9957159,17.5304539 22.1973917,17.1892177 22.5231923,17.0147567 C22.8489929,16.8402957 23.2447982,16.8615905 23.55,17.07 L39.57,28.17 C39.8382627,28.3613214 39.9975152,28.6705023 39.9975152,29 C39.9975152,29.3294977 39.8382627,29.6386786 39.57,29.83 Z" fill="#9E9E9E" id="Shape"/><path d="M38.18,30.7999952 L23.55,40.9299999 C23.2447939,41.1383864 22.8490011,41.159669 22.5232088,40.9852124 C22.1974166,40.8107558 21.9957375,40.4695365 22,40.0999995 L21.9999337,19.7899798 C22.1964035,19.7890838 22.3883629,19.8484167 22.55,19.9599901 L38.18,30.7999952 Z" fill="#F5F5F5" id="Shape"/></g><g id="Outline" stroke="#000000" stroke-linecap="round" stroke-linejoin="round" stroke-width="2"><ellipse cx="29" cy="29" id="Oval" rx="29" ry="28.875"/><ellipse cx="29" cy="29" id="Oval" rx="25" ry="24.875"/><path d="M22,17.89588 L22,40.10412 C21.9957534,40.4724299 22.1969604,40.8124553 22.5218469,40.9860035 C22.8467334,41.1595518 23.2412277,41.1377389 23.545,40.92943 L39.57015,29.82531 C39.8395425,29.6368487 40.0000005,29.3287704 40.0000005,29 C40.0000005,28.6712296 39.8395425,28.3631513 39.57015,28.17469 L23.545,17.07057 C23.2412277,16.8622611 22.8467334,16.8404482 22.5218469,17.0139965 C22.1969604,17.1875447 21.9957534,17.5275701 22,17.89588 Z" id="Shape"/></g></g></g></svg>