<svg height="512" viewBox="0 0 56 60" width="512" xmlns="http://www.w3.org/2000/svg"><g id="Page-1" fill="none" fill-rule="evenodd"><g id="030---Love-Poem" fill-rule="nonzero" transform="translate(0 -1)"><path id="Shape" d="m29 43h-24c2.209139 0 4 1.790861 4 4s-1.790861 4-4 4-4-1.790861-4-4v-41c0-2.209139 1.790861-4 4-4s4 1.790861 4 4-1.790861 4-4 4h24z" fill="#ffdc00"/><path id="Rectangle-path" d="m26 10h3v33h-3z" fill="#fec108"/><path id="Shape" d="m33 6c0 2.209139-1.790861 4-4 4h-24c2.209139 0 4-1.790861 4-4s-1.790861-4-4-4h24c2.209139 0 4 1.790861 4 4z" fill="#ffeb3a"/><path id="Shape" d="m29 2h-3c2.209139 0 4 1.790861 4 4s-1.790861 4-4 4h3c2.209139 0 4-1.790861 4-4s-1.790861-4-4-4z" fill="#fdd834"/><path id="Shape" d="m32.87 46h-.87c-1.6568542 0-3 1.3431458-3 3v2h-24c2.209139 0 4-1.790861 4-4s-1.790861-4-4-4h24c1.8228823.0013597 3.4142798 1.2350012 3.87 3z" fill="#ffeb3a"/><path id="Shape" d="m29 43h-3c1.8228823.0013597 3.4142798 1.2350012 3.87 3h-.87c-1.6568542 0-3 1.3431458-3 3v2h3v-2c0-1.6568542 1.3431458-3 3-3h.87c-.4557202-1.7649988-2.0471177-2.9986403-3.87-3z" fill="#fdd834"/><path id="Shape" d="m10 15.62c.4791302-.9522976 1.4350553-1.5717371 2.5-1.62.7089188.032097 1.3746673.3497454 1.845615.8805977.4709478.5308524.7069969 1.2297103.654385 1.9374023 0 2.114-2.035 3.513-5 6.182-2.965-2.669-5-4.068-5-6.182-.05261194-.707692.18343719-1.4065499.65438497-1.9374023.47094778-.5308523 1.13669628-.8485007 1.84561503-.8805977 1.06494467.0482629 2.02086982.6677024 2.5 1.62z" fill="#e91e63"/><rect id="Rectangle-path" fill="#02a9f4" height="14" rx="3" width="22" x="29" y="46"/><path id="Shape" d="m48 46h-3c1.6568542 0 3 1.3431458 3 3v8c0 1.6568542-1.3431458 3-3 3h3c1.6568542 0 3-1.3431458 3-3v-8c0-1.6568542-1.3431458-3-3-3z" fill="#0377bc"/><path id="Rectangle-path" d="m36 42h8v4h-8z" fill="#3f51b5"/><path id="Rectangle-path" d="m41 42h3v4h-3z" fill="#283593"/><rect id="Rectangle-path" fill="#02a9f4" height="4" rx="2" width="14" x="33" y="38"/><path id="Shape" d="m45 38h-3c1.1045695 0 2 .8954305 2 2s-.8954305 2-2 2h3c1.1045695 0 2-.8954305 2-2s-.8954305-2-2-2z" fill="#0377bc"/><path id="Shape" d="m38 38s-4-4-4-12c0-14 14-16 18-24 1.8741085 3.37040625 2.9034872 7.14479494 3 11 0 8-4 10-5 14s-3 10-7 11z" fill="#9d27b0"/><path id="Shape" d="m52 2c-.4759054.92922914-1.0694497 1.7933301-1.766 2.571 1.117534 2.67235604 1.7168401 5.5328038 1.766 8.429 0 8-4 10-5 14s-3 10-7 11h3c4-1 6-7 7-11s5-6 5-14c-.0965128-3.85520506-1.1258915-7.62959375-3-11z" fill="#6a1b9a"/><g fill="#000"><path id="Shape" d="m8.042 22.6c.4.356.836.733 1.289 1.141.3803157.3423168.9576843.3423168 1.338 0 .453-.408.884-.785 1.289-1.141 2.347-2.055 4.042-3.54 4.042-5.782.112424-1.4683568-.6946676-2.8533038-2.0276257-3.4793498s-2.9141524-.3627972-3.9723743.6613498c-.67560508-.6394971-1.56973626-.9971496-2.5-1-.97345966.0335456-1.8925971.4569026-2.55079525 1.1749027-.65819815.7180002-1.00022859 1.6703971-.94920475 2.6430973 0 2.242 1.7 3.727 4.042 5.782zm-.542-7.6c.68249133.0452962 1.29056357.4470039 1.6 1.057.16708644.3449903.51667741.5641101.9.5641101.3833226 0 .7329136-.2191198.9-.5641101.3092812-.6101345.9174423-1.0119009 1.6-1.057.4411275.0394205.8480832.2538982 1.1299447.5955143s.4151389.781901.3700553 1.2224857c0 1.278-1.091 2.291-3.36 4.28l-.64.563-.64-.563c-2.269-1.989-3.36-2.998-3.36-4.28-.0450836-.4405847.08819383-.8808696.37005529-1.2224857s.68881722-.5560938 1.12994471-.5955143z"/><path id="Shape" d="m19 16h6c.5522847 0 1-.4477153 1-1s-.4477153-1-1-1h-6c-.5522847 0-1 .4477153-1 1s.4477153 1 1 1z"/><path id="Shape" d="m18 20h7c.5522847 0 1-.4477153 1-1s-.4477153-1-1-1h-7c-.5522847 0-1 .4477153-1 1s.4477153 1 1 1z"/><path id="Shape" d="m25 22h-9c-.5522847 0-1 .4477153-1 1s.4477153 1 1 1h9c.5522847 0 1-.4477153 1-1s-.4477153-1-1-1z"/><path id="Shape" d="m5 28h20c.5522847 0 1-.4477153 1-1s-.4477153-1-1-1h-20c-.55228475 0-1 .4477153-1 1s.44771525 1 1 1z"/><path id="Shape" d="m5 32h20c.5522847 0 1-.4477153 1-1s-.4477153-1-1-1h-20c-.55228475 0-1 .4477153-1 1s.44771525 1 1 1z"/><path id="Shape" d="m5 36h7c.5522847 0 1-.4477153 1-1s-.4477153-1-1-1h-7c-.55228475 0-1 .4477153-1 1s.44771525 1 1 1z"/><path id="Shape" d="m25 34h-9c-.5522847 0-1 .4477153-1 1s.4477153 1 1 1h9c.5522847 0 1-.4477153 1-1s-.4477153-1-1-1z"/><path id="Shape" d="m5 40h20c.5522847 0 1-.4477153 1-1s-.4477153-1-1-1h-20c-.55228475 0-1 .4477153-1 1s.44771525 1 1 1z"/><path id="Shape" d="m51.962 1c-.365047.01365628-.6935999.22527957-.857.552-1.392 2.784-4.188 4.861-7.149 7.058-2.9328724 1.9654919-5.545789 4.3706433-7.747 7.131-.0204457.0252594-.0394749.0516333-.057.079-2.1249047 2.9626845-3.2309696 6.5349371-3.152 10.18 0 .191.013.368.017.554v.07c.0190736 3.6655416 1.0462188 7.2551873 2.969 10.376h-.986c-1.6568542 0-3 1.3431458-3 3s1.3431458 3 3 3v2h-1.425c-.649674-1.4878512-1.9838218-2.5656187-3.575-2.888v-31.212c2.5173928-.5111718 4.2378687-2.84673442 3.9797109-5.40249605-.2581577-2.55576164-2.4109454-4.50008556-4.9797109-4.49750395h-24c-2.76005315.00330612-4.99669388 2.23994685-5 5v41c.00330612 2.7600532 2.23994685 4.9966939 5 5h23v5c0 2.209139 1.790861 4 4 4h16c2.209139 0 4-1.790861 4-4v-8c0-2.209139-1.790861-4-4-4h-3v-2c1.4103264-.0066499 2.6255949-.9947644 2.9198373-2.3740708s-.412-2.7773298-1.6968373-3.3589292c1.975-1.888 3.543-5.205 4.747-10.024.39231-1.274101.9858002-2.4772858 1.758-3.564 2.2002078-3.1203256 3.3465486-6.8616988 3.272-10.679-.090044-4.03763228-1.1692515-7.99152171-3.143-11.515-.1840565-.31642396-.52941-.50357084-.895-.485zm-42.962 2h20c1.6568542 0 3 1.34314575 3 3s-1.3431458 3-3 3h-20c1.336006-1.77688599 1.336006-4.22311401 0-6zm-4 47c-1.65685425 0-3-1.3431458-3-3v-41c0-1.65685425 1.34314575-3 3-3s3 1.34314575 3 3-1.34314575 3-3 3c-.55228475 0-1 .44771525-1 1 0 .5522847.44771525 1 1 1h23v31h-23c-.55228475 0-1 .4477153-1 1s.44771525 1 1 1c1.65685425 0 3 1.3431458 3 3s-1.34314575 3-3 3zm4 0c1.336006-1.776886 1.336006-4.223114 0-6h20c.8827966.0014893 1.7195606.3940543 2.285 1.072-1.8994061.3450729-3.281342 1.9975065-3.285 3.928v1zm41-1v8c0 1.1045695-.8954305 2-2 2h-16c-1.1045695 0-2-.8954305-2-2v-8c0-1.1045695.8954305-2 2-2h16c1.1045695 0 2 .8954305 2 2zm-7-4h-6v-2h6zm2-4h-10c-.5522847 0-1-.4477153-1-1s.4477153-1 1-1h10c.5522847 0 1 .4477153 1 1s-.4477153 1-1 1zm8.79-25.2c-.783258.6793258-1.758156 1.0986367-2.79 1.2-.5522847 0-1 .4477153-1 1s.4477153 1 1 1c.7379264-.0154491 1.4647351-.1829385 2.135-.492-.5376159 1.446764-1.2423918 2.8257755-2.1 4.109-.8868905 1.2623362-1.56239 2.66062-2 4.14-.234.938-.478 1.79-.729 2.569-1.0357661.4751143-2.1669044.7057214-3.306.674-.5522847 0-1 .4477153-1 1s.4477153 1 1 1c.8068946.0036154 1.6117375-.0815638 2.4-.254-1.549 3.6-3.233 4.886-4.545 5.254h-1.955c-.191-2.857-.079-12.6 8.834-22.324.3733445-.4070339.3460339-1.0396555-.061-1.413s-1.0396555-.3460339-1.413.061c-9.34 10.193-9.59 20.304-9.367 23.676h-.439c-1.7551703-2.3048386-2.867656-5.0339483-3.224-7.909.4208386.2986678.8630259.5660524 1.323.8.4942949.2468713 1.0951287.0462949 1.342-.448s.0462949-1.0951287-.448-1.342c-.9192692-.4627912-1.7459277-1.0901569-2.439-1.851 0-.086-.008-.167-.008-.254-.0378222-2.3865664.481248-4.749089 1.516-6.9.4165065.9760609 1.0202105 1.861063 1.777 2.605.3923789.3789722 1.0160848.3735524 1.4018186-.0121814s.3911536-1.0094397.0121814-1.4018186c-.9831519-.947766-1.5973848-2.2141562-1.733-3.573 1.0956324-1.4304083 2.3567405-2.7260902 3.757-3.86-.0365595.8303723.0717239 1.6607701.32 2.454.1332832.4117049.5162596.6909669.949.692.1067414.000161.2127965-.0170645.314-.051.5239614-.173599.8081782-.7388993.635-1.263-.308646-1.1793504-.29933-2.4194199.027-3.594.3913333-.2933333.782-.585 1.172-.875 2.6-1.93 5.082-3.773 6.775-6.157 1.3008671 2.80507746 2.0079886 5.84872966 2.077 8.94.0001376.9372723-.0700595 1.8732336-.21 2.8z"/><path id="Shape" d="m33 52h3c.5522847 0 1-.4477153 1-1s-.4477153-1-1-1h-3c-.5522847 0-1 .4477153-1 1s.4477153 1 1 1z"/><path id="Shape" d="m39 51c0 .5522847.4477153 1 1 1h7c.5522847 0 1-.4477153 1-1s-.4477153-1-1-1h-7c-.5522847 0-1 .4477153-1 1z"/><path id="Shape" d="m47 54h-14c-.5522847 0-1 .4477153-1 1s.4477153 1 1 1h14c.5522847 0 1-.4477153 1-1s-.4477153-1-1-1z"/></g></g></g></svg>