<?xml version="1.0" ?><svg viewBox="0 0 512 512" xmlns="http://www.w3.org/2000/svg"><defs><style>.cls-1{fill:#dfdfdf;}.cls-2{fill:#ededed;}.cls-3{fill:#cacaca;}.cls-4{fill:#46c89d;}.cls-5{fill:#3caa86;}.cls-6{fill:#bdecdc;}.cls-7{fill:#a1c9bc;}.cls-8{fill:#00b378;}.cls-9{fill:#0071af;}.cls-10{fill:#cbe2ef;}.cls-11{fill:#006095;}.cls-12{fill:#f9dbdb;}.cls-13{fill:#ec9090;}.cls-14{fill:#d4bbbb;}.cls-15{fill:#bebebe;}.cls-16{fill:#096;}.cls-17{fill:#c97b7b;}</style></defs><title/><g data-name="/ FLAT" id="_FLAT"><rect class="cls-1" height="360" rx="16" width="408" x="56" y="96"/><rect class="cls-2" height="384" rx="16" width="464" x="24" y="24"/><path class="cls-3" d="M487.76514,37.3667C480.72144,243.25366,311.60352,408,104.00049,408H472a16.00016,16.00016,0,0,0,16-16V40A16.02936,16.02936,0,0,0,487.76514,37.3667Z"/><rect class="cls-4" height="96" rx="16" width="112" x="344" y="248"/><path class="cls-5" d="M344,323.7749V328a16.00016,16.00016,0,0,0,16,16h80a16.00016,16.00016,0,0,0,16-16V264a16.00016,16.00016,0,0,0-16-16H415.92261A386.21588,386.21588,0,0,1,344,323.7749Z"/><rect class="cls-4" height="96" rx="16" width="112" x="200" y="248"/><rect class="cls-6" height="16" width="24" x="224" y="272"/><rect class="cls-6" height="16" width="24" x="368" y="272"/><rect class="cls-4" height="96" rx="16" width="112" x="56" y="248"/><rect class="cls-6" height="16" width="24" x="80" y="272"/><rect class="cls-6" height="16" width="64" x="224" y="304"/><rect class="cls-7" height="16" width="64" x="368" y="304"/><path class="cls-8" d="M24,40V88H488V40a16,16,0,0,0-16-16H40A16,16,0,0,0,24,40Z"/><rect class="cls-6" height="16" width="16" x="48" y="48"/><rect class="cls-6" height="16" width="16" x="80" y="48"/><rect class="cls-6" height="16" width="16" x="112" y="48"/><rect class="cls-6" height="16" width="16" x="448" y="48"/><rect class="cls-4" height="96" rx="16" width="112" x="344" y="120"/><rect class="cls-4" height="96" rx="16" width="112" x="200" y="120"/><rect class="cls-4" height="96" rx="16" width="112" x="56" y="120"/><rect class="cls-6" height="16" width="24" x="80" y="144"/><rect class="cls-6" height="16" width="24" x="224" y="144"/><rect class="cls-6" height="16" width="24" x="368" y="144"/><rect class="cls-6" height="16" width="64" x="80" y="176"/><rect class="cls-6" height="16" width="64" x="224" y="176"/><rect class="cls-6" height="16" width="64" x="368" y="176"/><rect class="cls-6" height="16" width="64" x="80" y="304"/><circle class="cls-9" cx="320" cy="392" r="96"/><polygon class="cls-10" points="277.657 445.657 266.343 434.343 312 388.687 312 320 328 320 328 395.313 277.657 445.657"/><path class="cls-11" d="M280.53,479.53613a96.04632,96.04632,0,0,0,127.0061-127.00586A192.43182,192.43182,0,0,1,280.53,479.53613Z"/><rect class="cls-12" height="128" rx="16" width="128" x="360" y="360"/><rect class="cls-13" height="32" width="16" x="400" y="432"/><rect class="cls-13" height="32" width="16" x="432" y="432"/><path class="cls-13" d="M360,408H488V376a16,16,0,0,0-16-16H376a16,16,0,0,0-16,16Z"/><rect class="cls-12" height="48" width="16" x="384" y="336"/><rect class="cls-12" height="48" width="16" x="448" y="336"/><path class="cls-14" d="M371.885,487.4458A15.9769,15.9769,0,0,0,376,488h96a16.00016,16.00016,0,0,0,16-16V376a15.96974,15.96974,0,0,0-.5542-4.11523A128.02323,128.02323,0,0,1,371.885,487.4458Z"/><path class="cls-15" d="M104,408H56v32a15.93136,15.93136,0,0,0,1.09814,5.793A48.0099,48.0099,0,0,1,104,408Z"/><path class="cls-16" d="M487.93066,38.62793q-.06078-.63722-.16552-1.26123A385.57956,385.57956,0,0,1,482.67773,88H488V40C488,39.53662,487.96924,39.08105,487.93066,38.62793Z"/><path class="cls-5" d="M436.615,216H440a16.00016,16.00016,0,0,0,16-16V177.69165A382.61426,382.61426,0,0,1,436.615,216Z"/><path class="cls-7" d="M382.84448,288H392V277.98633Q387.50989,283.07373,382.84448,288Z"/><path class="cls-17" d="M448,464V452.93213A128.62467,128.62467,0,0,1,434.60962,464Z"/><path class="cls-17" d="M487.9314,374.64258c-.01783-.19727-.03638-.394-.06128-.58887-.02271-.187-.05567-.37109-.085-.55566-.0896-.5459-.199-1.08594-.33936-1.61328A127.23362,127.23362,0,0,1,478.67969,408H488V376C488,375.5415,487.96924,375.09082,487.9314,374.64258Z"/></g></svg>