<?xml version="1.0" ?><!DOCTYPE svg  PUBLIC '-//W3C//DTD SVG 1.1//EN'  'http://www.w3.org/Graphics/SVG/1.1/DTD/svg11.dtd'><svg enable-background="new 0 0 512 512" height="512px" id="Studio" version="1.1" viewBox="0 0 512 512" width="512px" xml:space="preserve" xmlns="http://www.w3.org/2000/svg" xmlns:xlink="http://www.w3.org/1999/xlink"><circle cx="256" cy="256" fill="#99CC99" id="Background" r="256"/><g id="Studio_1_"><g><path d="M121.548,84.634h268.904c2.702,0,4.803,2.101,4.803,4.801v174.067c0,2.703-2.101,4.804-4.803,4.804    H121.548c-2.703,0-4.803-2.101-4.803-4.804V89.435C116.745,86.734,118.845,84.634,121.548,84.634z" fill="#A9ABAE"/><polygon fill="#E6A545" points="127.85,291.414 390.753,291.414 427.368,410.561 84.636,410.561   "/><path d="M329.23,314.222c0,0.302,0,0.603,0,0.899c0,0.603,0,1.201-0.302,1.804H181.87    c-0.297-0.603-0.297-1.201-0.297-1.804c0-0.297,0-0.598,0-0.899c0-0.297,0-0.599,0-0.899c0-9.603,33.013-17.707,73.824-17.707    c40.82,0,73.833,8.104,73.833,17.707C329.23,313.623,329.23,313.925,329.23,314.222z" fill="#757575"/><path d="M329.23,314.222c0,0.302,0,0.603,0,0.899c0,0.603,0,1.201-0.302,1.804H250v-21.009    c1.799-0.301,3.598-0.301,5.397-0.301c40.82,0,73.833,8.104,73.833,17.707C329.23,313.623,329.23,313.925,329.23,314.222z" fill="#696969"/><polygon fill="#CCCCCC" points="228.69,233.791 282.108,233.791 282.108,298.017 228.69,298.017   "/><polygon fill="#B8B8B8" points="282.108,268.306 282.108,298.017 250,298.017 250,268.306   "/><polygon fill="#B8B8B8" points="232.891,237.992 279.108,237.992 279.108,293.815 232.891,293.815   "/><polygon fill="#A6A6A6" points="279.108,268.306 279.108,293.815 250,293.815 250,268.306   "/><path d="M132.05,91.536h252.402c2.101,0,3.598,1.801,3.598,3.901v157.86c0,2.101-1.497,3.904-3.598,3.904H127.548    c-2.101,0-3.599-1.804-3.599-3.904V99.939C123.95,95.437,127.548,91.536,132.05,91.536z" fill="#4E5A62"/><path d="M256,258.101c2.101,0,3.899,1.799,3.899,3.903c0,2.101-1.799,3.599-3.899,3.599s-3.899-1.498-3.899-3.599    C252.101,259.899,253.899,258.101,256,258.101z" fill="#CCCCCC"/><path d="M256,259.301c1.502,0,2.703,1.201,2.703,2.703c0,1.197-1.201,2.397-2.703,2.397    c-1.498,0-2.703-1.2-2.703-2.397C253.297,260.502,254.502,259.301,256,259.301z" fill="#B3B3B3"/><path d="M139.255,98.738h14.703v15.006h-14.703V98.738z M156.962,233.791h14.703v14.707h-14.703V233.791z     M139.255,233.791h14.703v14.707h-14.703V233.791z M156.962,216.987h14.703v14.703h-14.703V216.987z M139.255,216.987h14.703    v14.703h-14.703V216.987z M156.962,199.878h14.703v15.004h-14.703V199.878z M139.255,199.878h14.703v15.004h-14.703V199.878z     M156.962,183.071h14.703v14.707h-14.703V183.071z M139.255,183.071h14.703v14.707h-14.703V183.071z M156.962,166.268h14.703    v14.703h-14.703V166.268z M139.255,166.268h14.703v14.703h-14.703V166.268z M156.962,149.456h14.703v14.707h-14.703V149.456z     M139.255,149.456h14.703v14.707h-14.703V149.456z M156.962,132.653h14.703v14.703h-14.703V132.653z M139.255,132.653h14.703    v14.703h-14.703V132.653z M156.962,115.546h14.703v15.004h-14.703V115.546z M139.255,115.546h14.703v15.004h-14.703V115.546z     M156.962,98.738h14.703v15.006h-14.703V98.738z" fill="#C2C3C5"/><polygon fill="#E6E7E8" points="179.77,97.538 379.95,97.538 379.95,248.498 179.77,248.498   "/><polygon fill="#B3B3B3" points="179.77,97.538 379.95,97.538 379.95,115.245 179.77,115.245   "/><path d="M199.878,101.14h15.904c2.402,0,4.201,1.799,4.201,4.201l0,0c0,2.402-1.799,4.201-4.201,4.201h-15.904    c-2.401,0-4.205-1.799-4.205-4.201l0,0C195.674,102.939,197.477,101.14,199.878,101.14z" fill="#999999"/><path d="M228.69,101.14h15.904c2.401,0,4.201,1.799,4.201,4.201l0,0c0,2.402-1.799,4.201-4.201,4.201H228.69    c-2.402,0-4.205-1.799-4.205-4.201l0,0C224.485,102.939,226.289,101.14,228.69,101.14z" fill="#999999"/><path d="M257.502,101.14h15.904c2.401,0,4.2,1.799,4.2,4.201l0,0c0,2.402-1.799,4.201-4.2,4.201h-15.904    c-2.401,0-4.205-1.799-4.205-4.201l0,0C253.297,102.939,255.101,101.14,257.502,101.14z" fill="#999999"/><path d="M286.611,101.14h15.606c2.401,0,4.502,1.799,4.502,4.201l0,0c0,2.402-2.101,4.201-4.502,4.201h-15.606    c-2.402,0-4.503-1.799-4.503-4.201l0,0C282.108,102.939,284.209,101.14,286.611,101.14z" fill="#999999"/><path d="M315.423,101.14h15.606c2.401,0,4.502,1.799,4.502,4.201l0,0c0,2.402-2.101,4.201-4.502,4.201h-15.606    c-2.402,0-4.502-1.799-4.502-4.201l0,0C310.921,102.939,313.021,101.14,315.423,101.14z" fill="#999999"/><path d="M344.234,101.14h15.908c2.1,0,4.2,1.799,4.2,4.201l0,0c0,2.402-2.101,4.201-4.2,4.201h-15.908    c-2.401,0-4.502-1.799-4.502-4.201l0,0C339.732,102.939,341.833,101.14,344.234,101.14z" fill="#999999"/><polygon fill="#FFFFFF" points="186.674,120.347 373.348,120.347 373.348,243.996 186.674,243.996   "/><polygon fill="#CBD0D4" points="207.08,191.176 247.297,191.176 247.297,219.983 207.08,219.983   "/><polygon fill="#51A8B1" points="210.682,194.778 243.694,194.778 243.694,216.385 210.682,216.385   "/><polygon fill="#CBD0D4" points="253.297,181.272 293.515,181.272 293.515,209.782 253.297,209.782   "/><polygon fill="#51A8B1" points="256.899,184.569 290.213,184.569 290.213,206.18 256.899,206.18   "/><polygon fill="#E6E7E8" points="196.577,130.55 288.113,130.55 288.113,195.674 196.577,195.674   "/><polygon fill="#51A8B1" points="204.678,138.653 280.31,138.653 280.31,187.875 204.678,187.875   "/><rect fill="#CCCCCC" height="8.629" width="58.954" x="309.72" y="132.653"/><rect fill="#E6E6E6" height="42.017" width="58.824" x="309.72" y="144.355"/><rect fill="#E6E6E6" height="20.952" width="58.954" x="309.72" y="188.774"/><rect fill="#CF953E" height="16.836" width="342.969" x="84.636" y="410.561"/><g><path d="M184.569,331.33c15.606,0,31.213,0,46.519,0c15.607,0,31.214,0,46.82,0s31.213,0,46.519,0     c15.606,0,31.214,0,46.82,0c2.698,3.302,5.101,6.603,7.799,10.201c2.703,3.302,5.104,6.904,7.804,10.205     c2.401,3.302,5.104,6.904,7.803,10.205c2.402,3.603,5.104,6.903,7.507,10.205c-20.712,0-41.419,0-62.126,0     c-21.008,0-41.715,0-62.427,0c-20.707,0-41.715,0-62.422,0s-41.418,0-62.122,0c2.398-3.302,5.097-6.603,7.799-10.205     c2.703-3.301,5.104-6.903,7.803-10.205c2.699-3.301,5.402-6.903,8.105-10.205C179.171,337.933,181.87,334.632,184.569,331.33z" fill="#E6E6E6"/><path d="M153.661,371.544h247.896c0.603,0,1.201,1.201,1.201,2.401l0,0c0,1.502-0.599,2.402-1.201,2.402H153.661     c-0.599,0-1.201-0.9-1.201-2.402l0,0C152.46,372.745,153.063,371.544,153.661,371.544z" fill="#CCCCCC"/><path d="M153.661,371.845c-0.599,0-0.9,1.8-0.9,2.101c0,0.603,0.301,2.101,0.9,2.101h247.896     c0.603,0,0.899-1.498,0.899-2.101c0-0.301-0.297-2.101-0.899-2.101H153.661z" fill="#B3B3B3"/><path d="M274.306,331.33h3.603c15.606,0,31.213,0,46.519,0c15.606,0,31.214,0,46.82,0     c2.698,3.302,5.101,6.603,7.799,10.201c2.703,3.302,5.104,6.904,7.804,10.205c2.401,3.302,5.104,6.904,7.803,10.205     c2.402,3.603,5.104,6.903,7.507,10.205c-20.712,0-41.419,0-62.126,0c-21.008,0-41.715,0-62.427,0h-3.301V331.33z" fill="#CFCFCF"/><path d="M171.666,361.641c12.008,0,24.008,0,36.017,0c-0.904,1.502-1.502,3.004-2.101,4.2     c-12.305,0-24.611,0-36.917,0C169.565,364.645,170.766,363.143,171.666,361.641z" fill="#CCCCCC"/><path d="M210.083,361.641c3.9,0,7.799,0,11.703,0.301c-0.598,1.201-1.201,2.703-1.803,4.201     c-3.9,0-7.799,0-11.703,0C208.582,364.645,209.481,363.143,210.083,361.641z" fill="#CCCCCC"/><path d="M223.59,361.941c3.9,0,7.799,0,11.703,0c-0.599,1.201-1.201,2.703-1.502,4.201c-3.9,0-7.804,0-12.004,0     C222.385,364.645,222.987,363.143,223.59,361.941z" fill="#CCCCCC"/><path d="M237.092,361.941c3.903,0,7.502,0,11.406,0c-0.301,1.502-0.599,2.703-0.9,4.201     c-3.904,0-7.807,0-12.008,0C236.192,364.645,236.494,363.143,237.092,361.941z" fill="#CCCCCC"/><path d="M250.598,361.941c3.603,0,7.502,0,11.406,0c-0.301,1.502-0.301,3-0.603,4.201c-3.899,0-7.803,0-12.004,0     C249.699,364.645,250,363.443,250.598,361.941z" fill="#CCCCCC"/><path d="M263.804,361.941c3.899,0,7.803,0,11.702,0c0,1.502-0.297,3-0.297,4.502c-3.903,0-7.803,0-12.008-0.301     C263.502,364.941,263.804,363.443,263.804,361.941z" fill="#CCCCCC"/><path d="M277.31,361.941c3.899,0,7.804,0.301,11.703,0.301c0,1.201,0,2.699,0,4.201c-3.899,0-7.804,0-12.004,0     C277.31,364.941,277.31,363.443,277.31,361.941z" fill="#CCCCCC"/><path d="M290.812,362.242c3.904,0,7.804,0,11.707,0c0,1.498,0.302,2.699,0.302,4.201c-3.904,0-7.804,0-12.009,0     C290.812,364.941,290.812,363.443,290.812,362.242z" fill="#CCCCCC"/><path d="M304.318,362.242c3.903,0,7.803,0,11.707,0c0,1.498,0.297,3,0.598,4.201c-3.899,0-7.803,0-12.004,0     C304.619,364.941,304.318,363.74,304.318,362.242z" fill="#CCCCCC"/><path d="M317.824,362.242c3.899,0,7.804,0,11.703,0c0.301,1.498,0.603,3,0.903,4.503     c-3.903,0-7.803,0-12.008-0.302C318.125,365.242,318.125,363.74,317.824,362.242z" fill="#CCCCCC"/><path d="M331.33,362.242c3.9,0,7.503,0,11.402,0c0.603,1.498,0.903,3,1.502,4.503c-3.899,0-7.804,0-12.004,0     C331.929,365.242,331.628,363.74,331.33,362.242z" fill="#CCCCCC"/><path d="M344.535,362.242c12.005,0.298,24.009,0.298,36.013,0.298c0.899,1.502,1.502,2.702,2.402,4.205     c-12.306,0-24.611,0-36.917,0C345.736,365.242,345.134,363.74,344.535,362.242z" fill="#CCCCCC"/><path d="M206.18,356.238c3.904,0,7.502,0,11.406,0c-0.9,1.502-1.502,3-2.402,4.201c-3.904,0-7.502,0-11.402,0     C204.678,359.238,205.28,357.74,206.18,356.238z" fill="#CCCCCC"/><path d="M219.385,356.238c3.603,0,7.201,0,11.105,0c-0.599,1.502-1.201,3-1.799,4.502     c-3.904,0-7.803,0-11.703-0.301C217.883,359.238,218.485,357.74,219.385,356.238z" fill="#CCCCCC"/><path d="M232.293,356.238c3.598,0.302,7.498,0.302,11.104,0.302c-0.301,1.2-0.904,2.698-1.502,4.2     c-3.904,0-7.502,0-11.406,0C231.088,359.238,231.69,357.74,232.293,356.238z" fill="#CCCCCC"/><path d="M245.197,356.54c3.899,0,7.502,0,11.104,0c-0.301,1.502-0.603,2.698-0.904,4.2c-3.899,0-7.799,0-11.703,0     C244.293,359.238,244.896,357.74,245.197,356.54z" fill="#CCCCCC"/><path d="M258.101,356.54c3.903,0,7.502,0,11.405,0c-0.301,1.502-0.602,2.698-0.899,4.2c-3.903,0-7.506,0-11.405,0     C257.502,359.238,257.799,358.042,258.101,356.54z" fill="#CCCCCC"/><path d="M271.306,356.54c3.603,0,7.502,0,11.104,0c0,1.502-0.302,3-0.302,4.2c-3.899,0-7.803,0-11.702,0     C270.707,359.54,271.004,358.042,271.306,356.54z" fill="#CCCCCC"/><path d="M284.209,356.54c3.603,0,7.507,0,11.104,0c0,1.502,0,3,0,4.502c-3.899,0-7.502,0-11.401-0.302     C283.912,359.54,284.209,358.042,284.209,356.54z" fill="#CCCCCC"/><path d="M297.117,356.54c3.899,0,7.502,0,11.401,0.301c0,1.201,0,2.699,0.302,4.201c-3.899,0-7.804,0-11.703,0     C297.117,359.54,297.117,358.042,297.117,356.54z" fill="#CCCCCC"/><path d="M310.322,356.841c3.603,0,7.201,0,11.104,0c0.297,1.201,0.297,2.699,0.599,4.201c-3.9,0-7.502,0-11.406,0     C310.322,359.54,310.322,358.042,310.322,356.841z" fill="#CCCCCC"/><path d="M323.226,356.841c3.603,0,7.503,0,11.104,0c0.302,1.498,0.9,2.699,1.201,4.201c-3.903,0-7.803,0-11.707,0     C323.824,359.54,323.527,358.042,323.226,356.841z" fill="#CCCCCC"/><path d="M336.13,356.841c3.903,0,7.506,0,11.104,0c0.603,1.498,1.201,3,1.502,4.201c-3.903,0-7.502,0-11.406,0     C337.033,359.54,336.431,358.339,336.13,356.841z" fill="#CCCCCC"/><path d="M349.038,356.841c9.603,0,19.205,0,28.51,0c0.899,1.498,1.498,3,2.402,4.498     c-9.904,0-19.511,0-29.415-0.297C350.238,359.841,349.636,358.339,349.038,356.841z" fill="#CCCCCC"/><path d="M176.167,356.238c9.305,0,18.908,0,28.213,0c-0.9,1.502-1.502,3-2.402,4.201c-9.904,0-19.51,0-29.41,0     C173.766,358.941,174.971,357.74,176.167,356.238z" fill="#CCCCCC"/><path d="M196.878,350.837c3.599,0,7.201,0,10.804,0c-0.603,1.502-1.502,2.703-2.402,4.201     c-3.899,0-7.502,0-11.104,0C195.075,353.54,195.975,352.339,196.878,350.837z" fill="#CCCCCC"/><path d="M209.481,350.837c3.603,0,7.205,0,10.804,0c-0.599,1.502-1.498,3-2.101,4.201c-3.899,0-7.502,0-11.104,0     C207.682,353.54,208.582,352.339,209.481,350.837z" fill="#CCCCCC"/><path d="M222.084,350.837c3.606,0,7.205,0,10.807,0c-0.598,1.502-1.201,3-1.803,4.201c-3.899,0-7.498,0-11.104,0     C220.586,353.837,221.188,352.339,222.084,350.837z" fill="#CCCCCC"/><path d="M234.393,350.837c3.599,0,7.201,0,10.804,0c-0.301,1.502-0.904,3-1.201,4.502     c-3.903,0-7.502-0.301-11.104-0.301C233.49,353.837,234.092,352.339,234.393,350.837z" fill="#CCCCCC"/><path d="M246.996,350.837c3.603,0,7.205,0,10.803,0.301c-0.297,1.201-0.598,2.699-0.899,4.201     c-3.903,0-7.502,0-11.104,0C246.096,353.837,246.695,352.339,246.996,350.837z" fill="#CCCCCC"/><path d="M259.603,351.138c3.599,0,7.201,0,10.804,0c-0.302,1.201-0.603,2.699-0.9,4.201     c-3.603,0-7.204,0-11.104,0C259,353.837,259.301,352.339,259.603,351.138z" fill="#CCCCCC"/><path d="M272.205,351.138c3.603,0,7.205,0,10.808,0c-0.302,1.498-0.302,2.699-0.603,4.201     c-3.603,0-7.201,0-11.104,0C271.606,353.837,271.908,352.339,272.205,351.138z" fill="#CCCCCC"/><path d="M284.511,351.138c3.603,0,7.205,0,10.803,0c0,1.498,0,2.699,0,4.201c-3.598,0-7.2,0-11.104,0     C284.511,353.837,284.511,352.636,284.511,351.138z" fill="#CCCCCC"/><path d="M297.117,351.138c3.599,0,7.201,0,10.804,0c0,1.498,0.301,3,0.301,4.201c-3.603,0-7.205,0-11.104,0     C297.117,353.837,297.117,352.636,297.117,351.138z" fill="#CCCCCC"/><path d="M309.72,351.138c3.603,0,7.205,0,10.808,0c0.297,1.498,0.297,3,0.599,4.503     c-3.603,0-7.503-0.302-11.105-0.302C310.021,354.138,309.72,352.636,309.72,351.138z" fill="#CCCCCC"/><path d="M322.025,351.138c3.903,0,7.205,0,10.803,0c0.603,1.498,0.904,3,1.201,4.503c-3.599,0-7.502,0-11.104,0     C322.628,354.138,322.326,352.636,322.025,351.138z" fill="#CCCCCC"/><path d="M334.632,351.138c3.599,0,7.201,0,10.804,0c0.598,1.498,0.899,3,1.502,4.503c-3.603,0-7.507,0-11.104,0     C335.531,354.138,335.23,352.636,334.632,351.138z" fill="#CCCCCC"/><path d="M347.234,351.138c3.603,0,7.205,0,10.808,0c0.599,1.498,1.196,3,1.799,4.503c-3.603,0-7.502,0-11.104,0     C348.134,354.138,347.837,352.636,347.234,351.138z" fill="#CCCCCC"/><path d="M359.841,351.138c4.804,0.302,9.904,0.302,14.707,0.302c0.899,1.196,1.498,2.698,2.397,4.201     c-5.101,0-10.2,0-15.305,0C361.042,354.138,360.439,352.636,359.841,351.138z" fill="#CCCCCC"/><path d="M180.368,350.837c4.803,0,9.908,0,14.707,0c-0.899,1.502-1.799,2.703-2.699,4.201     c-5.104,0-10.205,0-15.305,0C177.967,353.54,179.171,352.339,180.368,350.837z" fill="#CCCCCC"/><path d="M183.975,345.436c3.599,0,7.201,0,10.502,0c-0.603,1.2-1.502,2.698-2.402,4.2c-3.603,0-7.205,0-10.803,0     C182.171,348.134,183.373,346.636,183.975,345.436z" fill="#CCCCCC"/><path d="M196.276,345.436c3.301,0,6.903,0,10.205,0c-0.598,1.502-1.201,2.698-2.1,4.2c-3.603,0-7.201,0-10.808,0     C194.477,348.134,195.376,346.636,196.276,345.436z" fill="#CCCCCC"/><path d="M208.28,345.436c3.603,0,6.904,0,10.506,0c-0.603,1.502-1.201,2.698-2.101,4.2c-3.603,0-6.904,0-10.506,0     C206.778,348.134,207.682,346.938,208.28,345.436z" fill="#CCCCCC"/><path d="M220.285,345.436c3.603,0,6.904,0,10.506,0c-0.301,1.502-0.9,2.698-1.502,4.2c-3.598,0-7.205,0-10.803,0     C219.088,348.134,219.983,346.938,220.285,345.436z" fill="#CCCCCC"/><path d="M232.59,345.436c3.301,0,6.904,0,10.205,0c-0.301,1.502-0.603,3-1.201,4.2c-3.603,0-7.201,0-10.803,0     C231.389,348.134,231.992,346.938,232.59,345.436z" fill="#CCCCCC"/><path d="M244.594,345.436c3.305,0,6.904,0,10.506,0c-0.301,1.502-0.599,3-1.201,4.2c-3.301,0-6.904,0-10.502,0     C243.694,348.436,244.293,346.938,244.594,345.436z" fill="#CCCCCC"/><path d="M256.599,345.436c3.603,0,6.903,0,10.506,0c-0.301,1.502-0.301,3-0.603,4.2c-3.599,0-7.201,0-10.803,0     C256,348.436,256.301,346.938,256.599,345.436z" fill="#CCCCCC"/><path d="M268.606,345.436c3.599,0,7.201,0,10.502,0c0,1.502,0,3-0.301,4.502c-3.599,0-7.201,0-10.502-0.302     C268.306,348.436,268.606,346.938,268.606,345.436z" fill="#CCCCCC"/><path d="M280.908,345.436c3.301,0,6.903,0,10.205,0c0.301,1.502,0.301,3,0.301,4.502c-3.603,0-7.205,0-10.803,0     C280.611,348.436,280.908,346.938,280.908,345.436z" fill="#CCCCCC"/><path d="M292.916,345.436c3.302,0,6.9,0,10.502,0c0,1.502,0.302,3,0.302,4.502c-3.603,0-7.205,0-10.804,0     C292.916,348.436,292.916,346.938,292.916,345.436z" fill="#CCCCCC"/><path d="M304.921,345.436c3.598,0.301,6.899,0.301,10.502,0.301c0.301,1.201,0.603,2.699,0.603,4.201     c-3.603,0-6.904,0-10.507,0C305.218,348.436,305.218,346.938,304.921,345.436z" fill="#CCCCCC"/><path d="M317.222,345.736c3.306,0,6.904,0,10.205,0c0.603,1.201,0.899,2.699,1.201,4.201     c-3.603,0-7.201,0-10.804,0C317.523,348.436,317.523,346.938,317.222,345.736z" fill="#CCCCCC"/><path d="M329.23,345.736c3.301,0,6.899,0,10.502,0c0.301,1.498,0.899,2.699,1.2,4.201c-3.603,0-7.2,0-10.502,0     C329.828,348.436,329.527,346.938,329.23,345.736z" fill="#CCCCCC"/><path d="M341.531,345.736c3.302,0,6.904,0,10.507,0c0.598,1.498,0.899,2.699,1.502,4.201     c-3.603,0-7.205,0-10.507,0C342.436,348.436,341.833,347.234,341.531,345.736z" fill="#CCCCCC"/><path d="M353.837,345.736c6.004,0,12.004,0,18.008,0c0.599,1.498,1.503,3,2.101,4.201c-6,0-12.305,0-18.305,0     C355.038,348.436,354.439,347.234,353.837,345.736z" fill="#CCCCCC"/><path d="M193.276,338.531c2.1,0,3.903,0,5.703,0c1.197,0,1.799,0.603,1.799,0.899l0,0     c-0.301,0.603-1.498,0.904-2.703,0.904c-1.799,0-3.598,0-5.397,0c-1.205,0-2.101-0.302-1.803-0.904l0,0     C191.176,339.134,192.376,338.531,193.276,338.531z" fill="#CCCCCC"/><path d="M204.381,338.531c1.799,0,3.603,0,5.401,0c1.201,0,2.101,0.603,1.799,0.899l0,0     c-0.301,0.603-1.197,0.904-2.401,0.904c-1.799,0-3.599,0-5.699,0c-0.903,0-1.803-0.302-1.502-0.904l0,0     C201.979,339.134,203.18,338.531,204.381,338.531z" fill="#CCCCCC"/><path d="M215.184,338.531c1.803,0,3.603,0,5.703,0c0.899,0,1.799,0.603,1.498,0.899l0,0     c0,0.603-1.196,0.904-2.1,0.904c-2.101,0-3.9,0-5.699,0c-1.205,0-1.804-0.302-1.804-0.904l0,0     C213.083,339.134,213.983,338.531,215.184,338.531z" fill="#CCCCCC"/><path d="M225.987,338.531c1.803,0,3.904,0,5.703,0c1.201,0,1.799,0.603,1.799,0.899l0,0     c0,0.603-1.197,0.904-2.402,0.904c-1.799,0-3.598,0-5.397,0c-1.205,0-2.101-0.302-1.803-0.904l0,0     C223.887,339.134,225.088,338.531,225.987,338.531z" fill="#CCCCCC"/><path d="M237.092,338.531c1.803,0,3.602,0,5.401,0c1.201,0,2.101,0.603,1.799,0.899l0,0     c0,0.603-0.896,0.904-2.101,0.904c-1.799,0-3.899,0-5.699,0c-0.904,0-1.799-0.302-1.799-0.904l0,0     C234.992,339.134,235.891,338.531,237.092,338.531z" fill="#CCCCCC"/><path d="M247.899,338.531c1.799,0,3.599,0,5.699,0c0.904,0,1.799,0.603,1.799,0.899l0,0     c0,0.603-1.197,0.904-2.101,0.904c-2.1,0-3.899,0-5.699,0c-1.205,0-2.1-0.302-1.803-0.904l0,0     C245.795,339.134,246.695,338.531,247.899,338.531z" fill="#CCCCCC"/><path d="M258.703,338.531c1.799,0,3.599,0,5.698,0c0.904,0,1.804,0.603,1.804,0.899l0,0     c0,0.603-0.899,0.904-2.101,0.904c-1.803,0-3.603,0-5.401,0c-1.201,0-2.104-0.302-2.104-0.904l0,0     C256.599,339.134,257.799,338.531,258.703,338.531z" fill="#CCCCCC"/><path d="M269.506,338.531c2.101,0,3.9,0,5.703,0c1.201,0,2.101,0.603,2.101,0.899l0,0     c0,0.603-0.899,0.904-2.101,0.904c-1.803,0-3.903,0-5.703,0c-1.2,0-2.1-0.302-1.803-0.904l0,0     C267.703,339.134,268.606,338.531,269.506,338.531z" fill="#CCCCCC"/><path d="M280.611,338.531c1.799,0,3.598,0.302,5.401,0.302c1.2,0,2.101,0.301,2.101,0.598l0,0     c0,0.603-0.9,0.904-1.804,0.904c-2.101,0-3.899,0-5.698,0c-1.201,0-2.101-0.302-2.101-0.904l0,0     C278.511,339.134,279.41,338.531,280.611,338.531z" fill="#CCCCCC"/><path d="M291.414,338.833c1.8,0,3.603,0,5.703,0c0.899,0,2.101,0.301,2.101,0.598l0,0     c0,0.603-0.899,0.904-2.101,0.904c-1.804,0-3.603,0-5.401,0c-1.201,0-2.101-0.302-2.101-0.904l0,0     C289.313,339.134,290.213,338.833,291.414,338.833z" fill="#CCCCCC"/><path d="M302.218,338.833c2.101,0,3.903,0,5.703,0c1.2,0,2.1,0.301,2.1,0.598l0,0     c0.302,0.603-0.598,0.904-1.799,0.904c-1.804,0-3.603,0-5.703,0c-1.2,0-2.101-0.302-2.101-0.904l0,0     C300.418,339.134,301.318,338.833,302.218,338.833z" fill="#CCCCCC"/><path d="M313.322,338.833c1.799,0,3.603,0,5.401,0c1.201,0,2.101,0.301,2.402,0.899l0,0     c0,0.301-0.9,0.603-1.8,0.603c-2.104,0-3.903,0-5.703,0c-1.2,0-2.1-0.302-2.401-0.603l0,0     C311.222,339.134,312.121,338.833,313.322,338.833z" fill="#CCCCCC"/><path d="M324.126,338.833c1.803,0,3.603,0,5.702,0c0.9,0,2.101,0.301,2.101,0.899l0,0     c0.302,0.301-0.599,0.603-1.799,0.603c-1.804,0-3.603,0-5.402,0c-1.2,0-2.401-0.302-2.401-0.603l0,0     C322.326,339.134,322.925,338.833,324.126,338.833z" fill="#CCCCCC"/><path d="M334.929,338.833c1.804,0,3.904,0,5.703,0c1.201,0,2.101,0.301,2.401,0.899l0,0     c0,0.301-0.598,0.899-1.799,0.899c-1.804,0-3.904,0-5.703,0c-1.201,0-2.101-0.599-2.401-0.899l0,0     C333.13,339.134,333.732,338.833,334.929,338.833z" fill="#CCCCCC"/><path d="M346.033,338.833c1.804,0,3.603,0,5.406,0c1.196,0,2.101,0.301,2.397,0.899l0,0     c0.301,0.301-0.599,0.899-1.498,0.899c-2.101,0-3.903,0-5.703,0c-1.2,0-2.401-0.599-2.401-0.899l0,0     C343.934,339.134,344.833,338.833,346.033,338.833z" fill="#CCCCCC"/><path d="M356.841,338.833c1.8,0,3.599,0,5.401,0c1.201,0,2.402,0.301,2.699,0.899l0,0     c0.301,0.301-0.599,0.899-1.799,0.899c-1.804,0-3.603,0-5.402,0c-1.2,0-2.401-0.599-2.702-0.899l0,0     C355.038,339.134,355.641,338.833,356.841,338.833z" fill="#CCCCCC"/><path d="M197.18,333.13c2.101,0,3.599,0.301,3.599,0.899c0,0.603-1.498,0.899-3.599,0.899     c-2.104,0-3.606-0.297-3.606-0.899C193.573,333.431,195.376,333.13,197.18,333.13z" fill="#CCCCCC"/><path d="M205.883,333.431c1.197,0,2.397,0.302,2.397,0.599c0,0.301-1.201,0.603-2.397,0.603     c-1.502,0-2.402-0.302-2.402-0.603C203.481,333.732,204.381,333.431,205.883,333.431z" fill="#CCCCCC"/><path d="M272.205,361.941c1.201,0,2.101,0,3.301,0c0,1.502-0.297,3-0.297,4.502c-1.2,0-2.104,0-3.301,0     C271.908,364.941,272.205,363.443,272.205,361.941z" fill="#B8B8B8"/><path d="M277.31,361.941c3.899,0,7.804,0.301,11.703,0.301c0,1.201,0,2.699,0,4.201c-3.899,0-7.804,0-12.004,0     C277.31,364.941,277.31,363.443,277.31,361.941z" fill="#B8B8B8"/><path d="M290.812,362.242c3.904,0,7.804,0,11.707,0c0,1.498,0.302,2.699,0.302,4.201c-3.904,0-7.804,0-12.009,0     C290.812,364.941,290.812,363.443,290.812,362.242z" fill="#B8B8B8"/><path d="M304.318,362.242c3.903,0,7.803,0,11.707,0c0,1.498,0.297,3,0.598,4.201c-3.899,0-7.803,0-12.004,0     C304.619,364.941,304.318,363.74,304.318,362.242z" fill="#B8B8B8"/><path d="M317.824,362.242c3.899,0,7.804,0,11.703,0c0.301,1.498,0.603,3,0.903,4.503     c-3.903,0-7.803,0-12.008-0.302C318.125,365.242,318.125,363.74,317.824,362.242z" fill="#B8B8B8"/><path d="M331.33,362.242c3.9,0,7.503,0,11.402,0c0.603,1.498,0.903,3,1.502,4.503c-3.899,0-7.804,0-12.004,0     C331.929,365.242,331.628,363.74,331.33,362.242z" fill="#B8B8B8"/><path d="M344.535,362.242c12.005,0.298,24.009,0.298,36.013,0.298c0.899,1.502,1.502,2.702,2.402,4.205     c-12.306,0-24.611,0-36.917,0C345.736,365.242,345.134,363.74,344.535,362.242z" fill="#B8B8B8"/><path d="M273.104,356.54c3.004,0,6.004,0,9.306,0c0,1.502-0.302,3-0.302,4.2c-3.301,0-6.603,0-9.603,0     C272.506,359.54,272.808,358.042,273.104,356.54z" fill="#B8B8B8"/><path d="M284.209,356.54c3.603,0,7.507,0,11.104,0c0,1.502,0,3,0,4.502c-3.899,0-7.502,0-11.401-0.302     C283.912,359.54,284.209,358.042,284.209,356.54z" fill="#B8B8B8"/><path d="M297.117,356.54c3.899,0,7.502,0,11.401,0.301c0,1.201,0,2.699,0.302,4.201c-3.899,0-7.804,0-11.703,0     C297.117,359.54,297.117,358.042,297.117,356.54z" fill="#B8B8B8"/><path d="M310.322,356.841c3.603,0,7.201,0,11.104,0c0.297,1.201,0.297,2.699,0.599,4.201c-3.9,0-7.502,0-11.406,0     C310.322,359.54,310.322,358.042,310.322,356.841z" fill="#B8B8B8"/><path d="M323.226,356.841c3.603,0,7.503,0,11.104,0c0.302,1.498,0.9,2.699,1.201,4.201c-3.903,0-7.803,0-11.707,0     C323.824,359.54,323.527,358.042,323.226,356.841z" fill="#B8B8B8"/><path d="M336.13,356.841c3.903,0,7.506,0,11.104,0c0.603,1.498,1.201,3,1.502,4.201c-3.903,0-7.502,0-11.406,0     C337.033,359.54,336.431,358.339,336.13,356.841z" fill="#B8B8B8"/><path d="M349.038,356.841c9.603,0,19.205,0,28.51,0c0.899,1.498,1.498,3,2.402,4.498     c-9.904,0-19.511,0-29.415-0.297C350.238,359.841,349.636,358.339,349.038,356.841z" fill="#B8B8B8"/><path d="M273.707,351.138c3,0,6,0,9.306,0c-0.302,1.498-0.302,2.699-0.603,4.201c-3,0-6,0-9.306,0     C273.406,353.837,273.406,352.339,273.707,351.138z" fill="#B8B8B8"/><path d="M284.511,351.138c3.603,0,7.205,0,10.803,0c0,1.498,0,2.699,0,4.201c-3.598,0-7.2,0-11.104,0     C284.511,353.837,284.511,352.636,284.511,351.138z" fill="#B8B8B8"/><path d="M297.117,351.138c3.599,0,7.201,0,10.804,0c0,1.498,0.301,3,0.301,4.201c-3.603,0-7.205,0-11.104,0     C297.117,353.837,297.117,352.636,297.117,351.138z" fill="#B8B8B8"/><path d="M309.72,351.138c3.603,0,7.205,0,10.808,0c0.297,1.498,0.297,3,0.599,4.503     c-3.603,0-7.503-0.302-11.105-0.302C310.021,354.138,309.72,352.636,309.72,351.138z" fill="#B8B8B8"/><path d="M322.025,351.138c3.903,0,7.502,0,10.803,0c0.603,1.498,0.904,3,1.201,4.503c-3.599,0-7.502,0-11.104,0     C322.628,354.138,322.326,352.636,322.025,351.138z" fill="#B8B8B8"/><path d="M334.632,351.138c3.599,0,7.201,0,10.804,0c0.598,1.498,0.899,3,1.502,4.503c-3.603,0-7.507,0-11.104,0     C335.531,354.138,335.23,352.636,334.632,351.138z" fill="#B8B8B8"/><path d="M347.234,351.138c3.603,0,7.205,0,10.808,0c0.599,1.498,1.196,3,1.799,4.503c-3.603,0-7.502,0-11.104,0     C348.134,354.138,347.837,352.636,347.234,351.138z" fill="#B8B8B8"/><path d="M359.841,351.138c4.804,0.302,9.904,0.302,14.707,0.302c0.899,1.196,1.498,2.698,2.397,4.201     c-5.101,0-10.2,0-15.305,0C361.042,354.138,360.439,352.636,359.841,351.138z" fill="#B8B8B8"/><path d="M274.009,345.436c1.799,0,3.598,0,5.1,0c0,1.502,0,3-0.301,4.502c-1.498,0-3.302,0-5.101,0     C274.009,348.436,274.009,346.938,274.009,345.436z" fill="#B8B8B8"/><path d="M280.908,345.436c3.301,0,6.903,0,10.205,0c0.301,1.502,0.301,3,0.301,4.502c-3.603,0-7.205,0-10.803,0     C280.611,348.436,280.908,346.938,280.908,345.436z" fill="#B8B8B8"/><path d="M292.916,345.436c3.302,0,6.9,0,10.502,0c0,1.502,0.302,3,0.302,4.502c-3.603,0-7.205,0-10.804,0     C292.916,348.436,292.916,346.938,292.916,345.436z" fill="#B8B8B8"/><path d="M304.921,345.436c3.598,0.301,6.899,0.301,10.502,0.301c0.301,1.201,0.603,2.699,0.603,4.201     c-3.603,0-6.904,0-10.507,0C305.218,348.436,305.218,346.938,304.921,345.436z" fill="#B8B8B8"/><path d="M317.222,345.736c3.306,0,6.904,0,10.205,0c0.603,1.201,0.899,2.699,1.201,4.201     c-3.603,0-7.201,0-10.804,0C317.523,348.436,317.523,346.938,317.222,345.736z" fill="#B8B8B8"/><path d="M329.23,345.736c3.301,0,6.899,0,10.502,0c0.301,1.498,0.899,2.699,1.2,4.201c-3.603,0-7.2,0-10.502,0     C329.828,348.436,329.527,346.938,329.23,345.736z" fill="#B8B8B8"/><path d="M341.531,345.736c3.302,0,6.904,0,10.507,0c0.598,1.498,0.899,2.699,1.502,4.201     c-3.603,0-7.205,0-10.507,0C342.436,348.436,341.833,347.234,341.531,345.736z" fill="#B8B8B8"/><path d="M353.837,345.736c6.004,0,12.004,0,18.008,0c0.599,1.498,1.503,3,2.101,4.201c-6,0-12.305,0-18.305,0     C355.038,348.436,354.439,347.234,353.837,345.736z" fill="#B8B8B8"/><path d="M274.009,338.531c0.598,0,0.899,0,1.2,0c1.201,0,2.101,0.603,2.101,0.899l0,0     c0,0.603-0.899,0.904-2.101,0.904c-0.301,0-0.603,0-1.2,0C274.009,339.732,274.009,339.134,274.009,338.531z" fill="#B8B8B8"/><path d="M280.611,338.531c1.799,0,3.598,0.302,5.401,0.302c1.2,0,2.101,0.301,2.101,0.598l0,0     c0,0.603-0.9,0.904-1.804,0.904c-2.101,0-3.899,0-5.698,0c-1.201,0-2.101-0.302-2.101-0.904l0,0     C278.511,339.134,279.41,338.531,280.611,338.531z" fill="#B8B8B8"/><path d="M291.414,338.833c1.8,0,3.603,0,5.703,0c0.899,0,2.101,0.301,2.101,0.598l0,0     c0,0.603-0.899,0.904-2.101,0.904c-1.804,0-3.603,0-5.401,0c-1.201,0-2.101-0.302-2.101-0.904l0,0     C289.313,339.134,290.213,338.833,291.414,338.833z" fill="#B8B8B8"/><path d="M302.218,338.833c2.101,0,3.903,0,5.703,0c1.2,0,2.1,0.301,2.1,0.598l0,0     c0.302,0.603-0.598,0.904-1.799,0.904c-1.804,0-3.603,0-5.703,0c-1.2,0-2.101-0.302-2.101-0.904l0,0     C300.418,339.134,301.318,338.833,302.218,338.833z" fill="#B8B8B8"/><path d="M313.322,338.833c1.799,0,3.603,0,5.401,0c1.201,0,2.101,0.301,2.402,0.899l0,0     c0,0.301-0.9,0.603-1.8,0.603c-2.104,0-3.903,0-5.703,0c-1.2,0-2.1-0.302-2.401-0.603l0,0     C311.222,339.134,312.121,338.833,313.322,338.833z" fill="#B8B8B8"/><path d="M324.126,338.833c1.803,0,3.603,0,5.702,0c0.9,0,2.101,0.301,2.101,0.899l0,0     c0.302,0.301-0.599,0.603-1.799,0.603c-1.804,0-3.603,0-5.402,0c-1.2,0-2.401-0.302-2.401-0.603l0,0     C322.326,339.134,322.925,338.833,324.126,338.833z" fill="#B8B8B8"/><path d="M334.929,338.833c1.804,0,3.904,0,5.703,0c1.201,0,2.101,0.301,2.401,0.899l0,0     c0,0.301-0.598,0.899-1.799,0.899c-1.804,0-3.904,0-5.703,0c-1.201,0-2.101-0.599-2.401-0.899l0,0     C333.13,339.134,333.732,338.833,334.929,338.833z" fill="#B8B8B8"/><path d="M346.033,338.833c1.804,0,3.603,0,5.406,0c1.196,0,2.101,0.301,2.397,0.899l0,0     c0.301,0.301-0.599,0.899-1.498,0.899c-2.101,0-3.903,0-5.703,0c-1.2,0-2.401-0.599-2.401-0.899l0,0     C343.934,339.134,344.833,338.833,346.033,338.833z" fill="#B8B8B8"/><path d="M356.841,338.833c1.8,0,3.599,0,5.401,0c1.201,0,2.402,0.301,2.699,0.899l0,0     c0.301,0.301-0.599,0.899-1.799,0.899c-1.804,0-3.603,0-5.402,0c-1.2,0-2.401-0.599-2.702-0.899l0,0     C355.038,339.134,355.641,338.833,356.841,338.833z" fill="#B8B8B8"/></g><path d="M274.306,371.544h127.251c0.603,0,1.201,1.201,1.201,2.401l0,0c0,1.502-0.599,2.402-1.201,2.402H274.306    V371.544z" fill="#B8B8B8"/><path d="M274.306,376.046h127.251c0.603,0,0.899-1.498,0.899-2.101c0-0.301-0.297-2.101-0.899-2.101H274.306    V376.046z" fill="#A1A1A1"/><polygon fill="#FFCC99" points="400.355,386.85 400.657,380.548 413.26,383.85   "/><path d="M400.355,386.85l0.302-6.302l0.899,0.302c0.603,0.301,1.201,0.899,1.502,1.2    c0.297,0.599-1.502,1.201-1.502,1.498c-0.302,0.603,1.502,1.201,1.799,1.502c0,0.302-1.196,0.9-2.101,1.503L400.355,386.85z" fill="#FFCC99"/><polygon fill="#4D4D4D" points="410.26,382.95 413.26,383.85 410.26,384.452   "/><path d="M400.355,386.85h-101.74c-5.101,0-5.101-6.302,0-6.302h102.042c0.301,0.899,1.799,1.201,1.799,1.502    c0,0.298-1.799,0.9-1.799,1.8c0,0.603,2.401,1.2,1.799,1.502C402.159,385.648,401.255,386.251,400.355,386.85z" fill="#E6B800"/><path d="M401.857,382.648c-0.603,0.302-1.2,0.603-1.2,1.201c0,0.301,0.598,0.603,1.2,0.899h-96.64v-2.101H401.857z    " fill="#FFCC00"/><path d="M400.355,386.85h-95.138v-2.101h96.64c0.599,0.301,0.9,0.301,0.599,0.603    C402.159,385.648,401.255,386.251,400.355,386.85z" fill="#E6B800"/><polygon fill="#CFA600" points="305.218,386.85 302.519,386.85 302.519,380.548 305.218,380.548   "/><path d="M302.519,386.85h-3.903c-5.401,0-5.101-6.302,0-6.302h3.903V386.85z" fill="#CC3300"/><path d="M289.013,274.908v9.603h101.74c3,0,5.703,2.101,6.603,4.803l36.615,119.448    c0,0.598,0.297,1.196,0.297,1.799v16.808c0,3.899-3,6.899-6.899,6.899H84.636c-3.903,0-6.904-3-6.904-6.899v-16.808    c0-0.603,0.301-1.502,0.599-2.101l25.812-71.427l-11.406-23.711c-7.502-1.201-13.506-7.804-13.506-15.908    c0-8.703,6.603-15.903,15.004-16.205l15.606-30.912V89.435c0-6.303,5.406-11.705,11.707-11.705h268.904    c6.301,0,11.707,5.402,11.707,11.705v174.067c0,6.302-5.406,11.406-11.707,11.406H289.013z M292.615,291.414h-10.507v-6.903    v-16.205h108.344c2.702,0,4.803-2.101,4.803-4.804V89.435c0-2.701-2.101-4.801-4.803-4.801H121.548    c-2.703,0-4.803,2.101-4.803,4.801v174.067c0,2.703,2.101,4.804,4.803,4.804H228.69v16.205v6.903h-10.506H127.85l-24.611,68.126    l-7.201,19.506l-11.402,31.515v16.808h342.732v-16.808l-36.615-119.146H292.615z M221.787,284.511v-9.603H121.548    c-1.502,0-2.703,0-3.602-0.603l-8.105,15.606c1.205,2.101,1.804,4.804,1.804,7.502c0,3.004-0.9,6.004-2.402,8.707l3.603,7.502    l8.703-24.61c1.201-2.703,3.599-4.502,6.302-4.502H221.787z M110.142,320.527l-7.205-15.009c2.104-2.101,3.606-5.101,3.606-8.104    c0-2.698-1.205-5.401-2.703-7.201l9.306-18.606c-1.803-2.101-3.306-5.104-3.306-8.104v-1.2l-12.301,24.31    c-0.603-0.302-1.502-0.302-2.1-0.302c-6.004,0-10.804,5.104-10.804,11.104c0,6.004,4.799,10.808,10.804,10.808    c0.297,0,0.598,0,0.896,0l10.506,21.908L110.142,320.527z" fill="#4E5A62"/><polygon fill="#26A69A" points="90.034,294.716 96.335,291.716 138.653,380.85 132.352,383.85   "/><polygon fill="#26A69A" points="141.355,216.083 135.054,212.782 90.335,300.716 96.636,304.017   "/><path d="M139.854,204.678l-7.803,7.808c-2.101,2.101-2.101,5.699,0,7.799l0,0c2.402,2.1,6.004,2.1,8.104,0    l7.502-7.799c-1.799-0.301-3.598-1.205-5.1-2.703l0,0C141.054,208.582,140.155,206.778,139.854,204.678z" fill="#00877A"/><polygon fill="#26A69A" points="237.69,198.075 166.565,259.603 153.36,213.083 182.77,182.77   "/><path d="M165.315,173.424l-22.71,22.71c-3.806,3.806-3.806,9.969,0,13.775l0.02,0.02    c3.806,3.802,9.973,3.802,13.775,0l22.71-22.706c3.802-3.806,3.802-9.973,0-13.775l-0.021-0.024    C175.284,169.622,169.117,169.622,165.315,173.424z" fill="#009688"/><path d="M95.439,286.611c5.967,0,10.803,4.84,10.803,10.803c0,5.968-4.836,10.808-10.803,10.808    c-5.968,0-10.804-4.84-10.804-10.808C84.636,291.451,89.472,286.611,95.439,286.611z" fill="#00877A"/><path d="M147.355,363.143c-0.301-0.603-0.301-1.502-0.301-2.101v-1.804c0-3.899,3.004-6.899,6.903-6.899h12.607    c3.904,0,6.904,3,6.904,6.899v1.804c0,0.599,0,1.498-0.301,2.101H147.355z" fill="#007A6E"/><path d="M110.443,363.143h99.86c5.471,0,9.9,4.433,9.9,9.903v0.57c0,5.471-4.429,9.903-9.9,9.903h-99.86    c-5.471,0-9.904-4.433-9.904-9.903v-0.57C100.54,367.575,104.973,363.143,110.443,363.143z" fill="#00877A"/></g></g></svg>